<mxfile host="Electron" modified="2024-02-13T04:45:09.215Z" agent="Mozilla/5.0 (Windows NT 10.0; Win64; x64) AppleWebKit/537.36 (KHTML, like Gecko) draw.io/23.0.2 Chrome/120.0.6099.109 Electron/28.1.0 Safari/537.36" etag="IzAnI1yy-937ElTxzapb" version="23.0.2" type="device">
  <diagram name="ER-model" id="c9Lj_rux2Gw0Q5Q0UBwv">
    <mxGraphModel dx="10600" dy="4916" grid="0" gridSize="10" guides="1" tooltips="1" connect="1" arrows="1" fold="1" page="0" pageScale="1" pageWidth="850" pageHeight="1100" math="0" shadow="0">
      <root>
        <mxCell id="0" />
        <mxCell id="1" parent="0" />
        <mxCell id="XJz8wHWipi7Oz__hJE9w-5" value="PRESCREPTION" style="whiteSpace=wrap;html=1;align=center;" parent="1" vertex="1">
          <mxGeometry x="-3879" y="-645" width="100" height="40" as="geometry" />
        </mxCell>
        <mxCell id="XJz8wHWipi7Oz__hJE9w-6" value="MEDICAL_RECORD" style="whiteSpace=wrap;html=1;align=center;" parent="1" vertex="1">
          <mxGeometry x="-4739" y="-2141" width="120" height="40" as="geometry" />
        </mxCell>
        <mxCell id="XJz8wHWipi7Oz__hJE9w-8" value="USER" style="whiteSpace=wrap;html=1;align=center;" parent="1" vertex="1">
          <mxGeometry x="-440" y="-760" width="100" height="40" as="geometry" />
        </mxCell>
        <mxCell id="XJz8wHWipi7Oz__hJE9w-9" value="username" style="ellipse;whiteSpace=wrap;html=1;align=center;" parent="1" vertex="1">
          <mxGeometry x="-430" y="-1040" width="100" height="40" as="geometry" />
        </mxCell>
        <mxCell id="XJz8wHWipi7Oz__hJE9w-10" value="first_name" style="ellipse;whiteSpace=wrap;html=1;align=center;" parent="1" vertex="1">
          <mxGeometry x="-270" y="-1030" width="100" height="40" as="geometry" />
        </mxCell>
        <mxCell id="XJz8wHWipi7Oz__hJE9w-11" value="last_name" style="ellipse;whiteSpace=wrap;html=1;align=center;" parent="1" vertex="1">
          <mxGeometry x="-180" y="-970" width="100" height="40" as="geometry" />
        </mxCell>
        <mxCell id="XJz8wHWipi7Oz__hJE9w-12" value="is_active" style="ellipse;whiteSpace=wrap;html=1;align=center;" parent="1" vertex="1">
          <mxGeometry x="-130" y="-920" width="100" height="40" as="geometry" />
        </mxCell>
        <mxCell id="XJz8wHWipi7Oz__hJE9w-13" value="is_staff" style="ellipse;whiteSpace=wrap;html=1;align=center;" parent="1" vertex="1">
          <mxGeometry x="-110" y="-860" width="100" height="40" as="geometry" />
        </mxCell>
        <mxCell id="XJz8wHWipi7Oz__hJE9w-14" value="is_superuser" style="ellipse;whiteSpace=wrap;html=1;align=center;" parent="1" vertex="1">
          <mxGeometry x="-130" y="-790" width="100" height="40" as="geometry" />
        </mxCell>
        <mxCell id="XJz8wHWipi7Oz__hJE9w-15" value="email" style="ellipse;whiteSpace=wrap;html=1;align=center;" parent="1" vertex="1">
          <mxGeometry x="-680" y="-970" width="100" height="40" as="geometry" />
        </mxCell>
        <mxCell id="XJz8wHWipi7Oz__hJE9w-16" value="password" style="ellipse;whiteSpace=wrap;html=1;align=center;" parent="1" vertex="1">
          <mxGeometry x="-820" y="-830" width="100" height="40" as="geometry" />
        </mxCell>
        <mxCell id="XJz8wHWipi7Oz__hJE9w-17" value="user_permissions" style="ellipse;whiteSpace=wrap;html=1;align=center;" parent="1" vertex="1">
          <mxGeometry x="-840" y="-760" width="100" height="40" as="geometry" />
        </mxCell>
        <mxCell id="XJz8wHWipi7Oz__hJE9w-18" value="groups" style="ellipse;whiteSpace=wrap;html=1;align=center;" parent="1" vertex="1">
          <mxGeometry x="-840" y="-690" width="100" height="40" as="geometry" />
        </mxCell>
        <mxCell id="XJz8wHWipi7Oz__hJE9w-19" value="last_login" style="ellipse;whiteSpace=wrap;html=1;align=center;" parent="1" vertex="1">
          <mxGeometry x="-770" y="-920" width="100" height="40" as="geometry" />
        </mxCell>
        <mxCell id="XJz8wHWipi7Oz__hJE9w-20" value="date_joined" style="ellipse;whiteSpace=wrap;html=1;align=center;" parent="1" vertex="1">
          <mxGeometry x="-570" y="-1020" width="100" height="40" as="geometry" />
        </mxCell>
        <mxCell id="XJz8wHWipi7Oz__hJE9w-22" value="PERMISSION" style="whiteSpace=wrap;html=1;align=center;" parent="1" vertex="1">
          <mxGeometry x="-2370" y="2130" width="100" height="40" as="geometry" />
        </mxCell>
        <mxCell id="XJz8wHWipi7Oz__hJE9w-23" value="" style="endArrow=classic;html=1;rounded=0;" parent="1" source="XJz8wHWipi7Oz__hJE9w-8" target="XJz8wHWipi7Oz__hJE9w-18" edge="1">
          <mxGeometry width="50" height="50" relative="1" as="geometry">
            <mxPoint x="-440" y="-750" as="sourcePoint" />
            <mxPoint x="-390" y="-800" as="targetPoint" />
          </mxGeometry>
        </mxCell>
        <mxCell id="XJz8wHWipi7Oz__hJE9w-24" value="" style="endArrow=classic;html=1;rounded=0;" parent="1" source="XJz8wHWipi7Oz__hJE9w-8" target="XJz8wHWipi7Oz__hJE9w-17" edge="1">
          <mxGeometry width="50" height="50" relative="1" as="geometry">
            <mxPoint x="-430" y="-721" as="sourcePoint" />
            <mxPoint x="-734" y="-668" as="targetPoint" />
          </mxGeometry>
        </mxCell>
        <mxCell id="XJz8wHWipi7Oz__hJE9w-25" value="" style="endArrow=classic;html=1;rounded=0;" parent="1" source="XJz8wHWipi7Oz__hJE9w-8" target="XJz8wHWipi7Oz__hJE9w-9" edge="1">
          <mxGeometry width="50" height="50" relative="1" as="geometry">
            <mxPoint x="-430" y="-721" as="sourcePoint" />
            <mxPoint x="-734" y="-668" as="targetPoint" />
          </mxGeometry>
        </mxCell>
        <mxCell id="XJz8wHWipi7Oz__hJE9w-26" value="" style="endArrow=classic;html=1;rounded=0;" parent="1" source="XJz8wHWipi7Oz__hJE9w-8" target="XJz8wHWipi7Oz__hJE9w-20" edge="1">
          <mxGeometry width="50" height="50" relative="1" as="geometry">
            <mxPoint x="-420" y="-711" as="sourcePoint" />
            <mxPoint x="-724" y="-658" as="targetPoint" />
          </mxGeometry>
        </mxCell>
        <mxCell id="XJz8wHWipi7Oz__hJE9w-27" value="" style="endArrow=classic;html=1;rounded=0;" parent="1" source="XJz8wHWipi7Oz__hJE9w-8" target="XJz8wHWipi7Oz__hJE9w-15" edge="1">
          <mxGeometry width="50" height="50" relative="1" as="geometry">
            <mxPoint x="-410" y="-701" as="sourcePoint" />
            <mxPoint x="-714" y="-648" as="targetPoint" />
          </mxGeometry>
        </mxCell>
        <mxCell id="XJz8wHWipi7Oz__hJE9w-28" value="" style="endArrow=classic;html=1;rounded=0;" parent="1" source="XJz8wHWipi7Oz__hJE9w-8" target="XJz8wHWipi7Oz__hJE9w-19" edge="1">
          <mxGeometry width="50" height="50" relative="1" as="geometry">
            <mxPoint x="-400" y="-691" as="sourcePoint" />
            <mxPoint x="-704" y="-638" as="targetPoint" />
          </mxGeometry>
        </mxCell>
        <mxCell id="XJz8wHWipi7Oz__hJE9w-29" value="" style="endArrow=classic;html=1;rounded=0;" parent="1" source="XJz8wHWipi7Oz__hJE9w-8" target="XJz8wHWipi7Oz__hJE9w-16" edge="1">
          <mxGeometry width="50" height="50" relative="1" as="geometry">
            <mxPoint x="-390" y="-681" as="sourcePoint" />
            <mxPoint x="-694" y="-628" as="targetPoint" />
          </mxGeometry>
        </mxCell>
        <mxCell id="XJz8wHWipi7Oz__hJE9w-30" value="" style="endArrow=classic;html=1;rounded=0;" parent="1" source="XJz8wHWipi7Oz__hJE9w-8" target="XJz8wHWipi7Oz__hJE9w-14" edge="1">
          <mxGeometry width="50" height="50" relative="1" as="geometry">
            <mxPoint x="-379" y="-750" as="sourcePoint" />
            <mxPoint x="-371" y="-990" as="targetPoint" />
          </mxGeometry>
        </mxCell>
        <mxCell id="XJz8wHWipi7Oz__hJE9w-31" value="" style="endArrow=classic;html=1;rounded=0;" parent="1" source="XJz8wHWipi7Oz__hJE9w-8" target="XJz8wHWipi7Oz__hJE9w-13" edge="1">
          <mxGeometry width="50" height="50" relative="1" as="geometry">
            <mxPoint x="-380" y="-750" as="sourcePoint" />
            <mxPoint x="-361" y="-980" as="targetPoint" />
          </mxGeometry>
        </mxCell>
        <mxCell id="XJz8wHWipi7Oz__hJE9w-32" value="" style="endArrow=classic;html=1;rounded=0;" parent="1" source="XJz8wHWipi7Oz__hJE9w-8" target="XJz8wHWipi7Oz__hJE9w-12" edge="1">
          <mxGeometry width="50" height="50" relative="1" as="geometry">
            <mxPoint x="-359" y="-730" as="sourcePoint" />
            <mxPoint x="-351" y="-970" as="targetPoint" />
          </mxGeometry>
        </mxCell>
        <mxCell id="XJz8wHWipi7Oz__hJE9w-33" value="" style="endArrow=classic;html=1;rounded=0;" parent="1" source="XJz8wHWipi7Oz__hJE9w-8" target="XJz8wHWipi7Oz__hJE9w-11" edge="1">
          <mxGeometry width="50" height="50" relative="1" as="geometry">
            <mxPoint x="-349" y="-720" as="sourcePoint" />
            <mxPoint x="-341" y="-960" as="targetPoint" />
          </mxGeometry>
        </mxCell>
        <mxCell id="XJz8wHWipi7Oz__hJE9w-34" value="" style="endArrow=classic;html=1;rounded=0;" parent="1" source="XJz8wHWipi7Oz__hJE9w-8" target="XJz8wHWipi7Oz__hJE9w-10" edge="1">
          <mxGeometry width="50" height="50" relative="1" as="geometry">
            <mxPoint x="-339" y="-710" as="sourcePoint" />
            <mxPoint x="-331" y="-950" as="targetPoint" />
          </mxGeometry>
        </mxCell>
        <mxCell id="XJz8wHWipi7Oz__hJE9w-36" value="" style="endArrow=classic;html=1;rounded=0;" parent="1" source="XJz8wHWipi7Oz__hJE9w-41" target="XJz8wHWipi7Oz__hJE9w-38" edge="1">
          <mxGeometry width="50" height="50" relative="1" as="geometry">
            <mxPoint x="-2310" y="1849" as="sourcePoint" />
            <mxPoint x="-2614" y="1902" as="targetPoint" />
          </mxGeometry>
        </mxCell>
        <mxCell id="XJz8wHWipi7Oz__hJE9w-37" value="" style="endArrow=classic;html=1;rounded=0;" parent="1" source="XJz8wHWipi7Oz__hJE9w-41" target="XJz8wHWipi7Oz__hJE9w-39" edge="1">
          <mxGeometry width="50" height="50" relative="1" as="geometry">
            <mxPoint x="-2270" y="1889" as="sourcePoint" />
            <mxPoint x="-2574" y="1942" as="targetPoint" />
          </mxGeometry>
        </mxCell>
        <mxCell id="XJz8wHWipi7Oz__hJE9w-38" value="permissions" style="ellipse;whiteSpace=wrap;html=1;align=center;" parent="1" vertex="1">
          <mxGeometry x="-2720" y="1810" width="100" height="40" as="geometry" />
        </mxCell>
        <mxCell id="XJz8wHWipi7Oz__hJE9w-39" value="name" style="ellipse;whiteSpace=wrap;html=1;align=center;" parent="1" vertex="1">
          <mxGeometry x="-2700" y="1740" width="100" height="40" as="geometry" />
        </mxCell>
        <mxCell id="XJz8wHWipi7Oz__hJE9w-41" value="GROUP" style="whiteSpace=wrap;html=1;align=center;" parent="1" vertex="1">
          <mxGeometry x="-2320" y="1810" width="100" height="40" as="geometry" />
        </mxCell>
        <mxCell id="XJz8wHWipi7Oz__hJE9w-42" value="codename" style="ellipse;whiteSpace=wrap;html=1;align=center;" parent="1" vertex="1">
          <mxGeometry x="-2750" y="1970" width="100" height="40" as="geometry" />
        </mxCell>
        <mxCell id="XJz8wHWipi7Oz__hJE9w-43" value="content_type" style="ellipse;whiteSpace=wrap;html=1;align=center;" parent="1" vertex="1">
          <mxGeometry x="-2770" y="2040" width="100" height="40" as="geometry" />
        </mxCell>
        <mxCell id="XJz8wHWipi7Oz__hJE9w-44" value="name" style="ellipse;whiteSpace=wrap;html=1;align=center;" parent="1" vertex="1">
          <mxGeometry x="-2770" y="2110" width="100" height="40" as="geometry" />
        </mxCell>
        <mxCell id="XJz8wHWipi7Oz__hJE9w-45" value="" style="endArrow=classic;html=1;rounded=0;" parent="1" source="XJz8wHWipi7Oz__hJE9w-22" target="XJz8wHWipi7Oz__hJE9w-42" edge="1">
          <mxGeometry width="50" height="50" relative="1" as="geometry">
            <mxPoint x="-2370" y="2051" as="sourcePoint" />
            <mxPoint x="-2624" y="2172" as="targetPoint" />
          </mxGeometry>
        </mxCell>
        <mxCell id="XJz8wHWipi7Oz__hJE9w-46" value="" style="endArrow=classic;html=1;rounded=0;" parent="1" source="XJz8wHWipi7Oz__hJE9w-22" target="XJz8wHWipi7Oz__hJE9w-43" edge="1">
          <mxGeometry width="50" height="50" relative="1" as="geometry">
            <mxPoint x="-2370" y="2060" as="sourcePoint" />
            <mxPoint x="-2664" y="2132" as="targetPoint" />
          </mxGeometry>
        </mxCell>
        <mxCell id="XJz8wHWipi7Oz__hJE9w-47" value="" style="endArrow=classic;html=1;rounded=0;" parent="1" source="XJz8wHWipi7Oz__hJE9w-22" target="XJz8wHWipi7Oz__hJE9w-44" edge="1">
          <mxGeometry width="50" height="50" relative="1" as="geometry">
            <mxPoint x="-2370" y="2069" as="sourcePoint" />
            <mxPoint x="-2320" y="2000" as="targetPoint" />
          </mxGeometry>
        </mxCell>
        <mxCell id="VKWNDp3rrL-xCuAL2dxG-1" value="DOCTOR" style="whiteSpace=wrap;html=1;align=center;" parent="1" vertex="1">
          <mxGeometry x="-1975" y="-540" width="100" height="40" as="geometry" />
        </mxCell>
        <mxCell id="VKWNDp3rrL-xCuAL2dxG-2" value="Specialization" style="ellipse;whiteSpace=wrap;html=1;align=center;" parent="1" vertex="1">
          <mxGeometry x="-2280" y="-845" width="100" height="40" as="geometry" />
        </mxCell>
        <mxCell id="VKWNDp3rrL-xCuAL2dxG-3" value="Contact_number" style="ellipse;whiteSpace=wrap;html=1;align=center;" parent="1" vertex="1">
          <mxGeometry x="-2280" y="-775" width="100" height="40" as="geometry" />
        </mxCell>
        <mxCell id="VKWNDp3rrL-xCuAL2dxG-4" value="" style="endArrow=classic;html=1;rounded=0;" parent="1" source="VKWNDp3rrL-xCuAL2dxG-1" target="VKWNDp3rrL-xCuAL2dxG-3" edge="1">
          <mxGeometry width="50" height="50" relative="1" as="geometry">
            <mxPoint x="-1975" y="-530" as="sourcePoint" />
            <mxPoint x="-1925" y="-580" as="targetPoint" />
          </mxGeometry>
        </mxCell>
        <mxCell id="VKWNDp3rrL-xCuAL2dxG-5" value="" style="endArrow=classic;html=1;rounded=0;" parent="1" source="VKWNDp3rrL-xCuAL2dxG-1" target="VKWNDp3rrL-xCuAL2dxG-2" edge="1">
          <mxGeometry width="50" height="50" relative="1" as="geometry">
            <mxPoint x="-1965" y="-501" as="sourcePoint" />
            <mxPoint x="-2269" y="-448" as="targetPoint" />
          </mxGeometry>
        </mxCell>
        <mxCell id="VKWNDp3rrL-xCuAL2dxG-6" value="PATIENT" style="whiteSpace=wrap;html=1;align=center;" parent="1" vertex="1">
          <mxGeometry x="-5688" y="-1590" width="100" height="40" as="geometry" />
        </mxCell>
        <mxCell id="VKWNDp3rrL-xCuAL2dxG-7" value="blood_group" style="ellipse;whiteSpace=wrap;html=1;align=center;" parent="1" vertex="1">
          <mxGeometry x="-5646" y="-2080" width="100" height="40" as="geometry" />
        </mxCell>
        <mxCell id="VKWNDp3rrL-xCuAL2dxG-8" value="address" style="ellipse;whiteSpace=wrap;html=1;align=center;" parent="1" vertex="1">
          <mxGeometry x="-5514" y="-2080" width="100" height="40" as="geometry" />
        </mxCell>
        <mxCell id="VKWNDp3rrL-xCuAL2dxG-9" value="marital_status" style="ellipse;whiteSpace=wrap;html=1;align=center;" parent="1" vertex="1">
          <mxGeometry x="-5424" y="-2020" width="100" height="40" as="geometry" />
        </mxCell>
        <mxCell id="VKWNDp3rrL-xCuAL2dxG-10" value="medical_history" style="ellipse;whiteSpace=wrap;html=1;align=center;" parent="1" vertex="1">
          <mxGeometry x="-5374" y="-1970" width="100" height="40" as="geometry" />
        </mxCell>
        <mxCell id="VKWNDp3rrL-xCuAL2dxG-11" value="present_illness_history" style="ellipse;whiteSpace=wrap;html=1;align=center;" parent="1" vertex="1">
          <mxGeometry x="-5394" y="-1915" width="140" height="45" as="geometry" />
        </mxCell>
        <mxCell id="VKWNDp3rrL-xCuAL2dxG-12" value="medications" style="ellipse;whiteSpace=wrap;html=1;align=center;" parent="1" vertex="1">
          <mxGeometry x="-5374" y="-1840" width="100" height="40" as="geometry" />
        </mxCell>
        <mxCell id="VKWNDp3rrL-xCuAL2dxG-13" value="education" style="ellipse;whiteSpace=wrap;html=1;align=center;" parent="1" vertex="1">
          <mxGeometry x="-5896" y="-2010" width="100" height="40" as="geometry" />
        </mxCell>
        <mxCell id="VKWNDp3rrL-xCuAL2dxG-14" value="phone_number" style="ellipse;whiteSpace=wrap;html=1;align=center;" parent="1" vertex="1">
          <mxGeometry x="-6036" y="-1870" width="100" height="40" as="geometry" />
        </mxCell>
        <mxCell id="VKWNDp3rrL-xCuAL2dxG-15" value="gender" style="ellipse;whiteSpace=wrap;html=1;align=center;" parent="1" vertex="1">
          <mxGeometry x="-6122" y="-1794" width="100" height="40" as="geometry" />
        </mxCell>
        <mxCell id="VKWNDp3rrL-xCuAL2dxG-16" value="ID" style="ellipse;whiteSpace=wrap;html=1;align=center;" parent="1" vertex="1">
          <mxGeometry x="-6122" y="-1724" width="100" height="40" as="geometry" />
        </mxCell>
        <mxCell id="VKWNDp3rrL-xCuAL2dxG-17" value="occupation" style="ellipse;whiteSpace=wrap;html=1;align=center;" parent="1" vertex="1">
          <mxGeometry x="-5986" y="-1960" width="100" height="40" as="geometry" />
        </mxCell>
        <mxCell id="VKWNDp3rrL-xCuAL2dxG-18" value="age" style="ellipse;whiteSpace=wrap;html=1;align=center;" parent="1" vertex="1">
          <mxGeometry x="-5786" y="-2060" width="100" height="40" as="geometry" />
        </mxCell>
        <mxCell id="VKWNDp3rrL-xCuAL2dxG-19" value="" style="endArrow=classic;html=1;rounded=0;" parent="1" source="VKWNDp3rrL-xCuAL2dxG-6" target="VKWNDp3rrL-xCuAL2dxG-16" edge="1">
          <mxGeometry width="50" height="50" relative="1" as="geometry">
            <mxPoint x="-5688" y="-1580" as="sourcePoint" />
            <mxPoint x="-5638" y="-1630" as="targetPoint" />
          </mxGeometry>
        </mxCell>
        <mxCell id="VKWNDp3rrL-xCuAL2dxG-20" value="" style="endArrow=classic;html=1;rounded=0;" parent="1" source="VKWNDp3rrL-xCuAL2dxG-6" target="VKWNDp3rrL-xCuAL2dxG-15" edge="1">
          <mxGeometry width="50" height="50" relative="1" as="geometry">
            <mxPoint x="-5678" y="-1551" as="sourcePoint" />
            <mxPoint x="-5982" y="-1498" as="targetPoint" />
          </mxGeometry>
        </mxCell>
        <mxCell id="VKWNDp3rrL-xCuAL2dxG-21" value="" style="endArrow=classic;html=1;rounded=0;" parent="1" source="VKWNDp3rrL-xCuAL2dxG-6" target="VKWNDp3rrL-xCuAL2dxG-7" edge="1">
          <mxGeometry width="50" height="50" relative="1" as="geometry">
            <mxPoint x="-5678" y="-1551" as="sourcePoint" />
            <mxPoint x="-5982" y="-1498" as="targetPoint" />
          </mxGeometry>
        </mxCell>
        <mxCell id="VKWNDp3rrL-xCuAL2dxG-22" value="" style="endArrow=classic;html=1;rounded=0;" parent="1" source="VKWNDp3rrL-xCuAL2dxG-6" target="VKWNDp3rrL-xCuAL2dxG-18" edge="1">
          <mxGeometry width="50" height="50" relative="1" as="geometry">
            <mxPoint x="-5668" y="-1541" as="sourcePoint" />
            <mxPoint x="-5972" y="-1488" as="targetPoint" />
          </mxGeometry>
        </mxCell>
        <mxCell id="VKWNDp3rrL-xCuAL2dxG-23" value="" style="endArrow=classic;html=1;rounded=0;" parent="1" source="VKWNDp3rrL-xCuAL2dxG-6" target="VKWNDp3rrL-xCuAL2dxG-13" edge="1">
          <mxGeometry width="50" height="50" relative="1" as="geometry">
            <mxPoint x="-5658" y="-1531" as="sourcePoint" />
            <mxPoint x="-5962" y="-1478" as="targetPoint" />
          </mxGeometry>
        </mxCell>
        <mxCell id="VKWNDp3rrL-xCuAL2dxG-24" value="" style="endArrow=classic;html=1;rounded=0;" parent="1" source="VKWNDp3rrL-xCuAL2dxG-6" target="VKWNDp3rrL-xCuAL2dxG-17" edge="1">
          <mxGeometry width="50" height="50" relative="1" as="geometry">
            <mxPoint x="-5648" y="-1521" as="sourcePoint" />
            <mxPoint x="-5952" y="-1468" as="targetPoint" />
          </mxGeometry>
        </mxCell>
        <mxCell id="VKWNDp3rrL-xCuAL2dxG-25" value="" style="endArrow=classic;html=1;rounded=0;" parent="1" source="VKWNDp3rrL-xCuAL2dxG-6" target="VKWNDp3rrL-xCuAL2dxG-14" edge="1">
          <mxGeometry width="50" height="50" relative="1" as="geometry">
            <mxPoint x="-5638" y="-1511" as="sourcePoint" />
            <mxPoint x="-5942" y="-1458" as="targetPoint" />
          </mxGeometry>
        </mxCell>
        <mxCell id="VKWNDp3rrL-xCuAL2dxG-26" value="" style="endArrow=classic;html=1;rounded=0;" parent="1" source="VKWNDp3rrL-xCuAL2dxG-6" target="VKWNDp3rrL-xCuAL2dxG-12" edge="1">
          <mxGeometry width="50" height="50" relative="1" as="geometry">
            <mxPoint x="-5627" y="-1580" as="sourcePoint" />
            <mxPoint x="-5619" y="-1820" as="targetPoint" />
          </mxGeometry>
        </mxCell>
        <mxCell id="VKWNDp3rrL-xCuAL2dxG-27" value="" style="endArrow=classic;html=1;rounded=0;" parent="1" source="VKWNDp3rrL-xCuAL2dxG-6" target="VKWNDp3rrL-xCuAL2dxG-11" edge="1">
          <mxGeometry width="50" height="50" relative="1" as="geometry">
            <mxPoint x="-5628" y="-1580" as="sourcePoint" />
            <mxPoint x="-5609" y="-1810" as="targetPoint" />
          </mxGeometry>
        </mxCell>
        <mxCell id="VKWNDp3rrL-xCuAL2dxG-28" value="" style="endArrow=classic;html=1;rounded=0;" parent="1" source="VKWNDp3rrL-xCuAL2dxG-6" target="VKWNDp3rrL-xCuAL2dxG-10" edge="1">
          <mxGeometry width="50" height="50" relative="1" as="geometry">
            <mxPoint x="-5607" y="-1560" as="sourcePoint" />
            <mxPoint x="-5599" y="-1800" as="targetPoint" />
          </mxGeometry>
        </mxCell>
        <mxCell id="VKWNDp3rrL-xCuAL2dxG-29" value="" style="endArrow=classic;html=1;rounded=0;" parent="1" source="VKWNDp3rrL-xCuAL2dxG-6" target="VKWNDp3rrL-xCuAL2dxG-9" edge="1">
          <mxGeometry width="50" height="50" relative="1" as="geometry">
            <mxPoint x="-5597" y="-1550" as="sourcePoint" />
            <mxPoint x="-5589" y="-1790" as="targetPoint" />
          </mxGeometry>
        </mxCell>
        <mxCell id="VKWNDp3rrL-xCuAL2dxG-30" value="" style="endArrow=classic;html=1;rounded=0;" parent="1" source="VKWNDp3rrL-xCuAL2dxG-6" target="VKWNDp3rrL-xCuAL2dxG-8" edge="1">
          <mxGeometry width="50" height="50" relative="1" as="geometry">
            <mxPoint x="-5587" y="-1540" as="sourcePoint" />
            <mxPoint x="-5579" y="-1780" as="targetPoint" />
          </mxGeometry>
        </mxCell>
        <mxCell id="VKWNDp3rrL-xCuAL2dxG-31" value="surgical_history" style="ellipse;whiteSpace=wrap;html=1;align=center;" parent="1" vertex="1">
          <mxGeometry x="-5364" y="-1770" width="100" height="40" as="geometry" />
        </mxCell>
        <mxCell id="VKWNDp3rrL-xCuAL2dxG-32" value="pulse_rate" style="ellipse;whiteSpace=wrap;html=1;align=center;" parent="1" vertex="1">
          <mxGeometry x="-4403" y="-1210" width="100" height="40" as="geometry" />
        </mxCell>
        <mxCell id="VKWNDp3rrL-xCuAL2dxG-33" value="respiration_rate" style="ellipse;whiteSpace=wrap;html=1;align=center;" parent="1" vertex="1">
          <mxGeometry x="-4383" y="-1080" width="100" height="40" as="geometry" />
        </mxCell>
        <mxCell id="VKWNDp3rrL-xCuAL2dxG-34" value="allergies" style="ellipse;whiteSpace=wrap;html=1;align=center;" parent="1" vertex="1">
          <mxGeometry x="-5364" y="-1695" width="100" height="40" as="geometry" />
        </mxCell>
        <mxCell id="VKWNDp3rrL-xCuAL2dxG-35" value="immuzinations" style="ellipse;whiteSpace=wrap;html=1;align=center;" parent="1" vertex="1">
          <mxGeometry x="-5354" y="-1615" width="100" height="40" as="geometry" />
        </mxCell>
        <mxCell id="VKWNDp3rrL-xCuAL2dxG-36" value="blood_pressure" style="ellipse;whiteSpace=wrap;html=1;align=center;" parent="1" vertex="1">
          <mxGeometry x="-4403" y="-1145" width="100" height="40" as="geometry" />
        </mxCell>
        <mxCell id="VKWNDp3rrL-xCuAL2dxG-37" value="body_temp" style="ellipse;whiteSpace=wrap;html=1;align=center;" parent="1" vertex="1">
          <mxGeometry x="-4363" y="-1010" width="100" height="40" as="geometry" />
        </mxCell>
        <mxCell id="VKWNDp3rrL-xCuAL2dxG-38" value="" style="endArrow=classic;html=1;rounded=0;" parent="1" source="VKWNDp3rrL-xCuAL2dxG-6" target="VKWNDp3rrL-xCuAL2dxG-35" edge="1">
          <mxGeometry width="50" height="50" relative="1" as="geometry">
            <mxPoint x="-5648" y="-1211" as="sourcePoint" />
            <mxPoint x="-5598" y="-1280" as="targetPoint" />
          </mxGeometry>
        </mxCell>
        <mxCell id="VKWNDp3rrL-xCuAL2dxG-39" value="" style="endArrow=classic;html=1;rounded=0;" parent="1" source="VKWNDp3rrL-xCuAL2dxG-6" target="VKWNDp3rrL-xCuAL2dxG-34" edge="1">
          <mxGeometry width="50" height="50" relative="1" as="geometry">
            <mxPoint x="-5648" y="-1220" as="sourcePoint" />
            <mxPoint x="-5942" y="-1148" as="targetPoint" />
          </mxGeometry>
        </mxCell>
        <mxCell id="VKWNDp3rrL-xCuAL2dxG-40" value="" style="endArrow=classic;html=1;rounded=0;" parent="1" source="VKWNDp3rrL-xCuAL2dxG-6" target="VKWNDp3rrL-xCuAL2dxG-31" edge="1">
          <mxGeometry width="50" height="50" relative="1" as="geometry">
            <mxPoint x="-5597" y="-1240" as="sourcePoint" />
            <mxPoint x="-5942" y="-1148" as="targetPoint" />
          </mxGeometry>
        </mxCell>
        <mxCell id="VKWNDp3rrL-xCuAL2dxG-41" value="" style="endArrow=classic;html=1;rounded=0;" parent="1" source="3XnuhgfGBLwq4sip3Mue-19" target="VKWNDp3rrL-xCuAL2dxG-37" edge="1">
          <mxGeometry width="50" height="50" relative="1" as="geometry">
            <mxPoint x="-4403" y="-1070" as="sourcePoint" />
            <mxPoint x="-5207" y="-813" as="targetPoint" />
          </mxGeometry>
        </mxCell>
        <mxCell id="VKWNDp3rrL-xCuAL2dxG-42" value="" style="endArrow=classic;html=1;rounded=0;" parent="1" source="3XnuhgfGBLwq4sip3Mue-19" target="VKWNDp3rrL-xCuAL2dxG-32" edge="1">
          <mxGeometry width="50" height="50" relative="1" as="geometry">
            <mxPoint x="-4433" y="-1020" as="sourcePoint" />
            <mxPoint x="-5197" y="-803" as="targetPoint" />
          </mxGeometry>
        </mxCell>
        <mxCell id="VKWNDp3rrL-xCuAL2dxG-43" value="" style="endArrow=classic;html=1;rounded=0;" parent="1" source="3XnuhgfGBLwq4sip3Mue-19" target="VKWNDp3rrL-xCuAL2dxG-36" edge="1">
          <mxGeometry width="50" height="50" relative="1" as="geometry">
            <mxPoint x="-4483" y="-960" as="sourcePoint" />
            <mxPoint x="-5187" y="-793" as="targetPoint" />
          </mxGeometry>
        </mxCell>
        <mxCell id="VKWNDp3rrL-xCuAL2dxG-44" value="" style="endArrow=classic;html=1;rounded=0;" parent="1" source="3XnuhgfGBLwq4sip3Mue-19" target="VKWNDp3rrL-xCuAL2dxG-33" edge="1">
          <mxGeometry width="50" height="50" relative="1" as="geometry">
            <mxPoint x="-4493" y="-940" as="sourcePoint" />
            <mxPoint x="-5177" y="-783" as="targetPoint" />
          </mxGeometry>
        </mxCell>
        <mxCell id="VKWNDp3rrL-xCuAL2dxG-45" value="" style="endArrow=classic;html=1;rounded=0;" parent="1" source="VKWNDp3rrL-xCuAL2dxG-6" target="VKWNDp3rrL-xCuAL2dxG-46" edge="1">
          <mxGeometry width="50" height="50" relative="1" as="geometry">
            <mxPoint x="-5806" y="-1555" as="sourcePoint" />
            <mxPoint x="-5768" y="-1285" as="targetPoint" />
          </mxGeometry>
        </mxCell>
        <mxCell id="VKWNDp3rrL-xCuAL2dxG-46" value="risk_factors" style="ellipse;whiteSpace=wrap;html=1;align=center;" parent="1" vertex="1">
          <mxGeometry x="-6092" y="-1659" width="100" height="40" as="geometry" />
        </mxCell>
        <mxCell id="3XnuhgfGBLwq4sip3Mue-1" value="is_on_vacation" style="ellipse;whiteSpace=wrap;html=1;align=center;" parent="1" vertex="1">
          <mxGeometry x="-1787" y="-1035" width="100" height="40" as="geometry" />
        </mxCell>
        <mxCell id="3XnuhgfGBLwq4sip3Mue-2" value="education" style="ellipse;whiteSpace=wrap;html=1;align=center;" parent="1" vertex="1">
          <mxGeometry x="-2009" y="-1025" width="100" height="40" as="geometry" />
        </mxCell>
        <mxCell id="3XnuhgfGBLwq4sip3Mue-3" value="is_retired" style="ellipse;whiteSpace=wrap;html=1;align=center;" parent="1" vertex="1">
          <mxGeometry x="-2189" y="-965" width="100" height="40" as="geometry" />
        </mxCell>
        <mxCell id="3XnuhgfGBLwq4sip3Mue-4" value="gender" style="ellipse;whiteSpace=wrap;html=1;align=center;" parent="1" vertex="1">
          <mxGeometry x="-2270" y="-905" width="100" height="40" as="geometry" />
        </mxCell>
        <mxCell id="3XnuhgfGBLwq4sip3Mue-5" value="experience" style="ellipse;whiteSpace=wrap;html=1;align=center;" parent="1" vertex="1">
          <mxGeometry x="-2099" y="-975" width="100" height="40" as="geometry" />
        </mxCell>
        <mxCell id="3XnuhgfGBLwq4sip3Mue-6" value="age" style="ellipse;whiteSpace=wrap;html=1;align=center;" parent="1" vertex="1">
          <mxGeometry x="-1919" y="-1065" width="100" height="40" as="geometry" />
        </mxCell>
        <mxCell id="3XnuhgfGBLwq4sip3Mue-7" value="" style="endArrow=classic;html=1;rounded=0;" parent="1" source="VKWNDp3rrL-xCuAL2dxG-1" target="3XnuhgfGBLwq4sip3Mue-4" edge="1">
          <mxGeometry width="50" height="50" relative="1" as="geometry">
            <mxPoint x="-1965" y="-580" as="sourcePoint" />
            <mxPoint x="-2259" y="-508" as="targetPoint" />
          </mxGeometry>
        </mxCell>
        <mxCell id="3XnuhgfGBLwq4sip3Mue-8" value="" style="endArrow=classic;html=1;rounded=0;" parent="1" source="VKWNDp3rrL-xCuAL2dxG-1" target="3XnuhgfGBLwq4sip3Mue-1" edge="1">
          <mxGeometry width="50" height="50" relative="1" as="geometry">
            <mxPoint x="-1914" y="-600" as="sourcePoint" />
            <mxPoint x="-2259" y="-508" as="targetPoint" />
          </mxGeometry>
        </mxCell>
        <mxCell id="3XnuhgfGBLwq4sip3Mue-9" value="" style="endArrow=classic;html=1;rounded=0;" parent="1" source="VKWNDp3rrL-xCuAL2dxG-1" target="3XnuhgfGBLwq4sip3Mue-6" edge="1">
          <mxGeometry width="50" height="50" relative="1" as="geometry">
            <mxPoint x="-1925" y="-600" as="sourcePoint" />
            <mxPoint x="-2249" y="-498" as="targetPoint" />
          </mxGeometry>
        </mxCell>
        <mxCell id="3XnuhgfGBLwq4sip3Mue-10" value="" style="endArrow=classic;html=1;rounded=0;" parent="1" source="VKWNDp3rrL-xCuAL2dxG-1" target="3XnuhgfGBLwq4sip3Mue-2" edge="1">
          <mxGeometry width="50" height="50" relative="1" as="geometry">
            <mxPoint x="-1938" y="-600" as="sourcePoint" />
            <mxPoint x="-2239" y="-488" as="targetPoint" />
          </mxGeometry>
        </mxCell>
        <mxCell id="3XnuhgfGBLwq4sip3Mue-11" value="" style="endArrow=classic;html=1;rounded=0;" parent="1" source="VKWNDp3rrL-xCuAL2dxG-1" target="3XnuhgfGBLwq4sip3Mue-5" edge="1">
          <mxGeometry width="50" height="50" relative="1" as="geometry">
            <mxPoint x="-1956" y="-600" as="sourcePoint" />
            <mxPoint x="-2229" y="-478" as="targetPoint" />
          </mxGeometry>
        </mxCell>
        <mxCell id="3XnuhgfGBLwq4sip3Mue-12" value="" style="endArrow=classic;html=1;rounded=0;" parent="1" source="VKWNDp3rrL-xCuAL2dxG-1" target="3XnuhgfGBLwq4sip3Mue-3" edge="1">
          <mxGeometry width="50" height="50" relative="1" as="geometry">
            <mxPoint x="-1965" y="-589" as="sourcePoint" />
            <mxPoint x="-2219" y="-468" as="targetPoint" />
          </mxGeometry>
        </mxCell>
        <mxCell id="3XnuhgfGBLwq4sip3Mue-13" value="address" style="ellipse;whiteSpace=wrap;html=1;align=center;" parent="1" vertex="1">
          <mxGeometry x="-1682" y="-1015" width="100" height="40" as="geometry" />
        </mxCell>
        <mxCell id="3XnuhgfGBLwq4sip3Mue-14" value="" style="endArrow=classic;html=1;rounded=0;" parent="1" source="VKWNDp3rrL-xCuAL2dxG-1" target="3XnuhgfGBLwq4sip3Mue-13" edge="1">
          <mxGeometry width="50" height="50" relative="1" as="geometry">
            <mxPoint x="-1902" y="-600" as="sourcePoint" />
            <mxPoint x="-1856" y="-790" as="targetPoint" />
          </mxGeometry>
        </mxCell>
        <mxCell id="3XnuhgfGBLwq4sip3Mue-15" value="vacation_date" style="ellipse;whiteSpace=wrap;html=1;align=center;" parent="1" vertex="1">
          <mxGeometry x="-1582" y="-975" width="100" height="40" as="geometry" />
        </mxCell>
        <mxCell id="3XnuhgfGBLwq4sip3Mue-16" value="" style="endArrow=classic;html=1;rounded=0;" parent="1" source="VKWNDp3rrL-xCuAL2dxG-1" target="3XnuhgfGBLwq4sip3Mue-15" edge="1">
          <mxGeometry width="50" height="50" relative="1" as="geometry">
            <mxPoint x="-1825" y="-530" as="sourcePoint" />
            <mxPoint x="-1761" y="-780" as="targetPoint" />
          </mxGeometry>
        </mxCell>
        <mxCell id="3XnuhgfGBLwq4sip3Mue-18" value="TREATMENT" style="whiteSpace=wrap;html=1;align=center;" parent="1" vertex="1">
          <mxGeometry x="-4256" y="-1579" width="100" height="40" as="geometry" />
        </mxCell>
        <mxCell id="3XnuhgfGBLwq4sip3Mue-19" value="ENCOUNTER" style="whiteSpace=wrap;html=1;align=center;" parent="1" vertex="1">
          <mxGeometry x="-4113" y="-1185" width="100" height="40" as="geometry" />
        </mxCell>
        <mxCell id="3XnuhgfGBLwq4sip3Mue-20" value="" style="endArrow=classic;html=1;rounded=0;" parent="1" source="3XnuhgfGBLwq4sip3Mue-19" target="3XnuhgfGBLwq4sip3Mue-21" edge="1">
          <mxGeometry width="50" height="50" relative="1" as="geometry">
            <mxPoint x="-4082" y="-1135" as="sourcePoint" />
            <mxPoint x="-5197" y="-803" as="targetPoint" />
          </mxGeometry>
        </mxCell>
        <mxCell id="3XnuhgfGBLwq4sip3Mue-21" value="goals" style="ellipse;whiteSpace=wrap;html=1;align=center;" parent="1" vertex="1">
          <mxGeometry x="-4213" y="-930" width="100" height="40" as="geometry" />
        </mxCell>
        <mxCell id="3XnuhgfGBLwq4sip3Mue-22" value="" style="endArrow=classic;html=1;rounded=0;" parent="1" source="3XnuhgfGBLwq4sip3Mue-19" target="3XnuhgfGBLwq4sip3Mue-23" edge="1">
          <mxGeometry width="50" height="50" relative="1" as="geometry">
            <mxPoint x="-3927.5" y="-1105" as="sourcePoint" />
            <mxPoint x="-5042.5" y="-773" as="targetPoint" />
          </mxGeometry>
        </mxCell>
        <mxCell id="3XnuhgfGBLwq4sip3Mue-23" value="type[insp,cons]" style="ellipse;whiteSpace=wrap;html=1;align=center;" parent="1" vertex="1">
          <mxGeometry x="-4303" y="-950" width="100" height="40" as="geometry" />
        </mxCell>
        <mxCell id="3XnuhgfGBLwq4sip3Mue-41" value="STORE" style="swimlane;whiteSpace=wrap;html=1;" parent="1" vertex="1">
          <mxGeometry x="-655.5" y="1083" width="200" height="230" as="geometry" />
        </mxCell>
        <mxCell id="3XnuhgfGBLwq4sip3Mue-40" value="SYMPTOMS" style="whiteSpace=wrap;html=1;align=center;" parent="3XnuhgfGBLwq4sip3Mue-41" vertex="1">
          <mxGeometry x="50" y="30" width="100" height="40" as="geometry" />
        </mxCell>
        <mxCell id="3XnuhgfGBLwq4sip3Mue-39" value="DIAGNOSES" style="whiteSpace=wrap;html=1;align=center;" parent="3XnuhgfGBLwq4sip3Mue-41" vertex="1">
          <mxGeometry x="50" y="130" width="100" height="40" as="geometry" />
        </mxCell>
        <mxCell id="3XnuhgfGBLwq4sip3Mue-42" value="SYMPTOMS_DIAGNOSES" style="whiteSpace=wrap;html=1;align=center;" parent="1" vertex="1">
          <mxGeometry x="-3735" y="-1982.5" width="170" height="40" as="geometry" />
        </mxCell>
        <mxCell id="3XnuhgfGBLwq4sip3Mue-43" value="date" style="ellipse;whiteSpace=wrap;html=1;align=center;" parent="1" vertex="1">
          <mxGeometry x="-3349" y="314" width="100" height="40" as="geometry" />
        </mxCell>
        <mxCell id="3XnuhgfGBLwq4sip3Mue-44" value="status&lt;br&gt;sched,acc,rej,&lt;br&gt;pending_approval" style="ellipse;whiteSpace=wrap;html=1;align=center;" parent="1" vertex="1">
          <mxGeometry x="-3379" y="444" width="150" height="90" as="geometry" />
        </mxCell>
        <mxCell id="3XnuhgfGBLwq4sip3Mue-45" value="time" style="ellipse;whiteSpace=wrap;html=1;align=center;" parent="1" vertex="1">
          <mxGeometry x="-3349" y="379" width="100" height="40" as="geometry" />
        </mxCell>
        <mxCell id="3XnuhgfGBLwq4sip3Mue-46" value="type" style="ellipse;whiteSpace=wrap;html=1;align=center;" parent="1" vertex="1">
          <mxGeometry x="-3259" y="554" width="100" height="40" as="geometry" />
        </mxCell>
        <mxCell id="3XnuhgfGBLwq4sip3Mue-47" value="" style="endArrow=classic;html=1;rounded=0;" parent="1" source="3XnuhgfGBLwq4sip3Mue-51" target="3XnuhgfGBLwq4sip3Mue-46" edge="1">
          <mxGeometry width="50" height="50" relative="1" as="geometry">
            <mxPoint x="-3899" y="612" as="sourcePoint" />
            <mxPoint x="-4703" y="869" as="targetPoint" />
          </mxGeometry>
        </mxCell>
        <mxCell id="3XnuhgfGBLwq4sip3Mue-48" value="" style="endArrow=classic;html=1;rounded=0;" parent="1" source="3XnuhgfGBLwq4sip3Mue-51" target="3XnuhgfGBLwq4sip3Mue-43" edge="1">
          <mxGeometry width="50" height="50" relative="1" as="geometry">
            <mxPoint x="-3929" y="662" as="sourcePoint" />
            <mxPoint x="-4693" y="879" as="targetPoint" />
          </mxGeometry>
        </mxCell>
        <mxCell id="3XnuhgfGBLwq4sip3Mue-49" value="" style="endArrow=classic;html=1;rounded=0;" parent="1" source="3XnuhgfGBLwq4sip3Mue-51" target="3XnuhgfGBLwq4sip3Mue-45" edge="1">
          <mxGeometry width="50" height="50" relative="1" as="geometry">
            <mxPoint x="-3979" y="722" as="sourcePoint" />
            <mxPoint x="-4683" y="889" as="targetPoint" />
          </mxGeometry>
        </mxCell>
        <mxCell id="3XnuhgfGBLwq4sip3Mue-50" value="" style="endArrow=classic;html=1;rounded=0;" parent="1" source="3XnuhgfGBLwq4sip3Mue-51" target="3XnuhgfGBLwq4sip3Mue-44" edge="1">
          <mxGeometry width="50" height="50" relative="1" as="geometry">
            <mxPoint x="-3989" y="742" as="sourcePoint" />
            <mxPoint x="-4673" y="899" as="targetPoint" />
          </mxGeometry>
        </mxCell>
        <mxCell id="3XnuhgfGBLwq4sip3Mue-51" value="APPOINTMENT" style="whiteSpace=wrap;html=1;align=center;" parent="1" vertex="1">
          <mxGeometry x="-3107" y="346" width="100" height="40" as="geometry" />
        </mxCell>
        <mxCell id="zzxlrSQOpVHTD6vEr21p-1" value="SECRETARY" style="whiteSpace=wrap;html=1;align=center;" parent="1" vertex="1">
          <mxGeometry x="-1986" y="544" width="100" height="40" as="geometry" />
        </mxCell>
        <mxCell id="zzxlrSQOpVHTD6vEr21p-3" value="Contact_number" style="ellipse;whiteSpace=wrap;html=1;align=center;" parent="1" vertex="1">
          <mxGeometry x="-2370" y="1109" width="100" height="40" as="geometry" />
        </mxCell>
        <mxCell id="zzxlrSQOpVHTD6vEr21p-4" value="" style="endArrow=classic;html=1;rounded=0;" parent="1" source="zzxlrSQOpVHTD6vEr21p-1" target="zzxlrSQOpVHTD6vEr21p-3" edge="1">
          <mxGeometry width="50" height="50" relative="1" as="geometry">
            <mxPoint x="-2411" y="629" as="sourcePoint" />
            <mxPoint x="-2361" y="579" as="targetPoint" />
          </mxGeometry>
        </mxCell>
        <mxCell id="zzxlrSQOpVHTD6vEr21p-6" value="is_on_vacation" style="ellipse;whiteSpace=wrap;html=1;align=center;" parent="1" vertex="1">
          <mxGeometry x="-2560" y="759" width="100" height="40" as="geometry" />
        </mxCell>
        <mxCell id="zzxlrSQOpVHTD6vEr21p-7" value="education" style="ellipse;whiteSpace=wrap;html=1;align=center;" parent="1" vertex="1">
          <mxGeometry x="-2535" y="889" width="100" height="40" as="geometry" />
        </mxCell>
        <mxCell id="zzxlrSQOpVHTD6vEr21p-8" value="is_retired" style="ellipse;whiteSpace=wrap;html=1;align=center;" parent="1" vertex="1">
          <mxGeometry x="-2495" y="999" width="100" height="40" as="geometry" />
        </mxCell>
        <mxCell id="zzxlrSQOpVHTD6vEr21p-9" value="gender" style="ellipse;whiteSpace=wrap;html=1;align=center;" parent="1" vertex="1">
          <mxGeometry x="-2435" y="1049" width="100" height="40" as="geometry" />
        </mxCell>
        <mxCell id="zzxlrSQOpVHTD6vEr21p-10" value="experience" style="ellipse;whiteSpace=wrap;html=1;align=center;" parent="1" vertex="1">
          <mxGeometry x="-2515" y="939" width="100" height="40" as="geometry" />
        </mxCell>
        <mxCell id="zzxlrSQOpVHTD6vEr21p-11" value="age" style="ellipse;whiteSpace=wrap;html=1;align=center;" parent="1" vertex="1">
          <mxGeometry x="-2545" y="829" width="100" height="40" as="geometry" />
        </mxCell>
        <mxCell id="zzxlrSQOpVHTD6vEr21p-12" value="" style="endArrow=classic;html=1;rounded=0;" parent="1" source="zzxlrSQOpVHTD6vEr21p-1" target="zzxlrSQOpVHTD6vEr21p-9" edge="1">
          <mxGeometry width="50" height="50" relative="1" as="geometry">
            <mxPoint x="-2401" y="579" as="sourcePoint" />
            <mxPoint x="-2695" y="651" as="targetPoint" />
          </mxGeometry>
        </mxCell>
        <mxCell id="zzxlrSQOpVHTD6vEr21p-13" value="" style="endArrow=classic;html=1;rounded=0;" parent="1" source="zzxlrSQOpVHTD6vEr21p-1" target="zzxlrSQOpVHTD6vEr21p-6" edge="1">
          <mxGeometry width="50" height="50" relative="1" as="geometry">
            <mxPoint x="-2350" y="559" as="sourcePoint" />
            <mxPoint x="-2695" y="651" as="targetPoint" />
          </mxGeometry>
        </mxCell>
        <mxCell id="zzxlrSQOpVHTD6vEr21p-14" value="" style="endArrow=classic;html=1;rounded=0;" parent="1" source="zzxlrSQOpVHTD6vEr21p-1" target="zzxlrSQOpVHTD6vEr21p-11" edge="1">
          <mxGeometry width="50" height="50" relative="1" as="geometry">
            <mxPoint x="-2361" y="559" as="sourcePoint" />
            <mxPoint x="-2685" y="661" as="targetPoint" />
          </mxGeometry>
        </mxCell>
        <mxCell id="zzxlrSQOpVHTD6vEr21p-15" value="" style="endArrow=classic;html=1;rounded=0;" parent="1" source="zzxlrSQOpVHTD6vEr21p-1" target="zzxlrSQOpVHTD6vEr21p-7" edge="1">
          <mxGeometry width="50" height="50" relative="1" as="geometry">
            <mxPoint x="-2374" y="559" as="sourcePoint" />
            <mxPoint x="-2675" y="671" as="targetPoint" />
          </mxGeometry>
        </mxCell>
        <mxCell id="zzxlrSQOpVHTD6vEr21p-16" value="" style="endArrow=classic;html=1;rounded=0;" parent="1" source="zzxlrSQOpVHTD6vEr21p-1" target="zzxlrSQOpVHTD6vEr21p-10" edge="1">
          <mxGeometry width="50" height="50" relative="1" as="geometry">
            <mxPoint x="-2392" y="559" as="sourcePoint" />
            <mxPoint x="-2665" y="681" as="targetPoint" />
          </mxGeometry>
        </mxCell>
        <mxCell id="zzxlrSQOpVHTD6vEr21p-17" value="" style="endArrow=classic;html=1;rounded=0;" parent="1" source="zzxlrSQOpVHTD6vEr21p-1" target="zzxlrSQOpVHTD6vEr21p-8" edge="1">
          <mxGeometry width="50" height="50" relative="1" as="geometry">
            <mxPoint x="-2401" y="570" as="sourcePoint" />
            <mxPoint x="-2655" y="691" as="targetPoint" />
          </mxGeometry>
        </mxCell>
        <mxCell id="zzxlrSQOpVHTD6vEr21p-18" value="address" style="ellipse;whiteSpace=wrap;html=1;align=center;" parent="1" vertex="1">
          <mxGeometry x="-2510" y="689" width="100" height="40" as="geometry" />
        </mxCell>
        <mxCell id="zzxlrSQOpVHTD6vEr21p-19" value="" style="endArrow=classic;html=1;rounded=0;" parent="1" source="zzxlrSQOpVHTD6vEr21p-1" target="zzxlrSQOpVHTD6vEr21p-18" edge="1">
          <mxGeometry width="50" height="50" relative="1" as="geometry">
            <mxPoint x="-2338" y="559" as="sourcePoint" />
            <mxPoint x="-2292" y="369" as="targetPoint" />
          </mxGeometry>
        </mxCell>
        <mxCell id="zzxlrSQOpVHTD6vEr21p-20" value="vacation_date" style="ellipse;whiteSpace=wrap;html=1;align=center;" parent="1" vertex="1">
          <mxGeometry x="-2455" y="644" width="100" height="40" as="geometry" />
        </mxCell>
        <mxCell id="zzxlrSQOpVHTD6vEr21p-21" value="" style="endArrow=classic;html=1;rounded=0;" parent="1" source="zzxlrSQOpVHTD6vEr21p-1" target="zzxlrSQOpVHTD6vEr21p-20" edge="1">
          <mxGeometry width="50" height="50" relative="1" as="geometry">
            <mxPoint x="-2261" y="629" as="sourcePoint" />
            <mxPoint x="-2197" y="379" as="targetPoint" />
          </mxGeometry>
        </mxCell>
        <mxCell id="zzxlrSQOpVHTD6vEr21p-22" value="work_hours" style="ellipse;whiteSpace=wrap;html=1;align=center;" parent="1" vertex="1">
          <mxGeometry x="-2039" y="-21" width="100" height="40" as="geometry" />
        </mxCell>
        <mxCell id="zzxlrSQOpVHTD6vEr21p-24" value="work_days" style="ellipse;whiteSpace=wrap;html=1;align=center;" parent="1" vertex="1">
          <mxGeometry x="-2039" y="44" width="100" height="40" as="geometry" />
        </mxCell>
        <mxCell id="zzxlrSQOpVHTD6vEr21p-27" value="" style="endArrow=classic;html=1;rounded=0;" parent="1" source="zzxlrSQOpVHTD6vEr21p-30" target="zzxlrSQOpVHTD6vEr21p-22" edge="1">
          <mxGeometry width="50" height="50" relative="1" as="geometry">
            <mxPoint x="-2099" y="159" as="sourcePoint" />
            <mxPoint x="-2863" y="376" as="targetPoint" />
          </mxGeometry>
        </mxCell>
        <mxCell id="zzxlrSQOpVHTD6vEr21p-28" value="" style="endArrow=classic;html=1;rounded=0;" parent="1" source="zzxlrSQOpVHTD6vEr21p-30" target="zzxlrSQOpVHTD6vEr21p-24" edge="1">
          <mxGeometry width="50" height="50" relative="1" as="geometry">
            <mxPoint x="-2149" y="219" as="sourcePoint" />
            <mxPoint x="-2853" y="386" as="targetPoint" />
          </mxGeometry>
        </mxCell>
        <mxCell id="zzxlrSQOpVHTD6vEr21p-30" value="WORKING_SCHEDULE" style="whiteSpace=wrap;html=1;align=center;" parent="1" vertex="1">
          <mxGeometry x="-1779" y="-6" width="140" height="40" as="geometry" />
        </mxCell>
        <mxCell id="zzxlrSQOpVHTD6vEr21p-31" value="" style="endArrow=classic;html=1;rounded=0;" parent="1" source="3XnuhgfGBLwq4sip3Mue-19" target="zzxlrSQOpVHTD6vEr21p-32" edge="1">
          <mxGeometry width="50" height="50" relative="1" as="geometry">
            <mxPoint x="-4103" y="-1229" as="sourcePoint" />
            <mxPoint x="-5187" y="-863" as="targetPoint" />
          </mxGeometry>
        </mxCell>
        <mxCell id="zzxlrSQOpVHTD6vEr21p-32" value="Notes" style="ellipse;whiteSpace=wrap;html=1;align=center;" parent="1" vertex="1">
          <mxGeometry x="-4393" y="-1270" width="100" height="40" as="geometry" />
        </mxCell>
        <mxCell id="zzxlrSQOpVHTD6vEr21p-33" value="date" style="ellipse;whiteSpace=wrap;html=1;align=center;" parent="1" vertex="1">
          <mxGeometry x="-4160" y="-591" width="100" height="40" as="geometry" />
        </mxCell>
        <mxCell id="zzxlrSQOpVHTD6vEr21p-34" value="size" style="ellipse;whiteSpace=wrap;html=1;align=center;" parent="1" vertex="1">
          <mxGeometry x="-4040" y="-486" width="100" height="40" as="geometry" />
        </mxCell>
        <mxCell id="zzxlrSQOpVHTD6vEr21p-35" value="photo" style="ellipse;whiteSpace=wrap;html=1;align=center;" parent="1" vertex="1">
          <mxGeometry x="-4130" y="-531" width="100" height="40" as="geometry" />
        </mxCell>
        <mxCell id="zzxlrSQOpVHTD6vEr21p-38" value="" style="endArrow=classic;html=1;rounded=0;" parent="1" source="XJz8wHWipi7Oz__hJE9w-5" target="zzxlrSQOpVHTD6vEr21p-33" edge="1">
          <mxGeometry width="50" height="50" relative="1" as="geometry">
            <mxPoint x="-3889" y="-594" as="sourcePoint" />
            <mxPoint x="-4973" y="-228" as="targetPoint" />
          </mxGeometry>
        </mxCell>
        <mxCell id="zzxlrSQOpVHTD6vEr21p-39" value="" style="endArrow=classic;html=1;rounded=0;" parent="1" source="XJz8wHWipi7Oz__hJE9w-5" target="zzxlrSQOpVHTD6vEr21p-35" edge="1">
          <mxGeometry width="50" height="50" relative="1" as="geometry">
            <mxPoint x="-3889" y="-583" as="sourcePoint" />
            <mxPoint x="-4963" y="-218" as="targetPoint" />
          </mxGeometry>
        </mxCell>
        <mxCell id="zzxlrSQOpVHTD6vEr21p-40" value="" style="endArrow=classic;html=1;rounded=0;" parent="1" source="XJz8wHWipi7Oz__hJE9w-5" target="zzxlrSQOpVHTD6vEr21p-34" edge="1">
          <mxGeometry width="50" height="50" relative="1" as="geometry">
            <mxPoint x="-3889" y="-571" as="sourcePoint" />
            <mxPoint x="-4953" y="-208" as="targetPoint" />
          </mxGeometry>
        </mxCell>
        <mxCell id="zzxlrSQOpVHTD6vEr21p-48" value="CLINIC" style="whiteSpace=wrap;html=1;align=center;" parent="1" vertex="1">
          <mxGeometry x="-5612" y="893" width="100" height="40" as="geometry" />
        </mxCell>
        <mxCell id="zzxlrSQOpVHTD6vEr21p-49" value="name" style="ellipse;whiteSpace=wrap;html=1;align=center;" parent="1" vertex="1">
          <mxGeometry x="-5872" y="938" width="100" height="40" as="geometry" />
        </mxCell>
        <mxCell id="zzxlrSQOpVHTD6vEr21p-50" value="address" style="ellipse;whiteSpace=wrap;html=1;align=center;" parent="1" vertex="1">
          <mxGeometry x="-5752" y="1043" width="100" height="40" as="geometry" />
        </mxCell>
        <mxCell id="zzxlrSQOpVHTD6vEr21p-51" value="date_joined" style="ellipse;whiteSpace=wrap;html=1;align=center;" parent="1" vertex="1">
          <mxGeometry x="-5842" y="998" width="100" height="40" as="geometry" />
        </mxCell>
        <mxCell id="zzxlrSQOpVHTD6vEr21p-52" value="" style="endArrow=classic;html=1;rounded=0;" parent="1" source="zzxlrSQOpVHTD6vEr21p-48" target="zzxlrSQOpVHTD6vEr21p-49" edge="1">
          <mxGeometry width="50" height="50" relative="1" as="geometry">
            <mxPoint x="-5622" y="944" as="sourcePoint" />
            <mxPoint x="-6706" y="1310" as="targetPoint" />
          </mxGeometry>
        </mxCell>
        <mxCell id="zzxlrSQOpVHTD6vEr21p-53" value="" style="endArrow=classic;html=1;rounded=0;" parent="1" source="zzxlrSQOpVHTD6vEr21p-48" target="zzxlrSQOpVHTD6vEr21p-51" edge="1">
          <mxGeometry width="50" height="50" relative="1" as="geometry">
            <mxPoint x="-5622" y="955" as="sourcePoint" />
            <mxPoint x="-6696" y="1320" as="targetPoint" />
          </mxGeometry>
        </mxCell>
        <mxCell id="zzxlrSQOpVHTD6vEr21p-54" value="" style="endArrow=classic;html=1;rounded=0;" parent="1" source="zzxlrSQOpVHTD6vEr21p-48" target="zzxlrSQOpVHTD6vEr21p-50" edge="1">
          <mxGeometry width="50" height="50" relative="1" as="geometry">
            <mxPoint x="-5622" y="967" as="sourcePoint" />
            <mxPoint x="-6686" y="1330" as="targetPoint" />
          </mxGeometry>
        </mxCell>
        <mxCell id="zzxlrSQOpVHTD6vEr21p-55" value="dosage" style="ellipse;whiteSpace=wrap;html=1;align=center;" parent="1" vertex="1">
          <mxGeometry x="-3316" y="-952" width="100" height="40" as="geometry" />
        </mxCell>
        <mxCell id="zzxlrSQOpVHTD6vEr21p-56" value="duration" style="ellipse;whiteSpace=wrap;html=1;align=center;" parent="1" vertex="1">
          <mxGeometry x="-3296" y="-822" width="100" height="40" as="geometry" />
        </mxCell>
        <mxCell id="zzxlrSQOpVHTD6vEr21p-57" value="frequency" style="ellipse;whiteSpace=wrap;html=1;align=center;" parent="1" vertex="1">
          <mxGeometry x="-3316" y="-887" width="100" height="40" as="geometry" />
        </mxCell>
        <mxCell id="zzxlrSQOpVHTD6vEr21p-60" value="" style="endArrow=classic;html=1;rounded=0;" parent="1" source="zzxlrSQOpVHTD6vEr21p-63" target="zzxlrSQOpVHTD6vEr21p-55" edge="1">
          <mxGeometry width="50" height="50" relative="1" as="geometry">
            <mxPoint x="-3877" y="-853" as="sourcePoint" />
            <mxPoint x="-4641" y="-636" as="targetPoint" />
          </mxGeometry>
        </mxCell>
        <mxCell id="zzxlrSQOpVHTD6vEr21p-61" value="" style="endArrow=classic;html=1;rounded=0;" parent="1" source="zzxlrSQOpVHTD6vEr21p-63" target="zzxlrSQOpVHTD6vEr21p-57" edge="1">
          <mxGeometry width="50" height="50" relative="1" as="geometry">
            <mxPoint x="-3927" y="-793" as="sourcePoint" />
            <mxPoint x="-4631" y="-626" as="targetPoint" />
          </mxGeometry>
        </mxCell>
        <mxCell id="zzxlrSQOpVHTD6vEr21p-62" value="" style="endArrow=classic;html=1;rounded=0;" parent="1" source="zzxlrSQOpVHTD6vEr21p-63" target="zzxlrSQOpVHTD6vEr21p-56" edge="1">
          <mxGeometry width="50" height="50" relative="1" as="geometry">
            <mxPoint x="-3937" y="-773" as="sourcePoint" />
            <mxPoint x="-4621" y="-616" as="targetPoint" />
          </mxGeometry>
        </mxCell>
        <mxCell id="zzxlrSQOpVHTD6vEr21p-63" value="MEDICATION" style="whiteSpace=wrap;html=1;align=center;" parent="1" vertex="1">
          <mxGeometry x="-3557" y="-1018" width="100" height="40" as="geometry" />
        </mxCell>
        <mxCell id="zzxlrSQOpVHTD6vEr21p-66" value="" style="endArrow=classic;html=1;rounded=0;" parent="1" source="zzxlrSQOpVHTD6vEr21p-63" target="zzxlrSQOpVHTD6vEr21p-67" edge="1">
          <mxGeometry width="50" height="50" relative="1" as="geometry">
            <mxPoint x="-3371.5" y="-938" as="sourcePoint" />
            <mxPoint x="-4486.5" y="-606" as="targetPoint" />
          </mxGeometry>
        </mxCell>
        <mxCell id="zzxlrSQOpVHTD6vEr21p-67" value="instructions" style="ellipse;whiteSpace=wrap;html=1;align=center;" parent="1" vertex="1">
          <mxGeometry x="-3382" y="-745" width="100" height="40" as="geometry" />
        </mxCell>
        <mxCell id="3XnuhgfGBLwq4sip3Mue-26" value="MEDICATIONS_STORE" style="whiteSpace=wrap;html=1;align=center;" parent="1" vertex="1">
          <mxGeometry x="-724.5" y="1459" width="215" height="40" as="geometry" />
        </mxCell>
        <mxCell id="zzxlrSQOpVHTD6vEr21p-70" value="name" style="ellipse;whiteSpace=wrap;html=1;align=center;" parent="1" vertex="1">
          <mxGeometry x="-984.5" y="1484" width="100" height="40" as="geometry" />
        </mxCell>
        <mxCell id="zzxlrSQOpVHTD6vEr21p-71" value="" style="endArrow=classic;html=1;rounded=0;" parent="1" source="3XnuhgfGBLwq4sip3Mue-26" target="zzxlrSQOpVHTD6vEr21p-70" edge="1">
          <mxGeometry width="50" height="50" relative="1" as="geometry">
            <mxPoint x="-704.5" y="1574" as="sourcePoint" />
            <mxPoint x="-1778.5" y="1891" as="targetPoint" />
          </mxGeometry>
        </mxCell>
        <mxCell id="zzxlrSQOpVHTD6vEr21p-72" value="photo" style="ellipse;whiteSpace=wrap;html=1;align=center;" parent="1" vertex="1">
          <mxGeometry x="-764.5" y="1649" width="100" height="40" as="geometry" />
        </mxCell>
        <mxCell id="zzxlrSQOpVHTD6vEr21p-73" value="" style="endArrow=classic;html=1;rounded=0;" parent="1" source="3XnuhgfGBLwq4sip3Mue-26" target="zzxlrSQOpVHTD6vEr21p-72" edge="1">
          <mxGeometry width="50" height="50" relative="1" as="geometry">
            <mxPoint x="-662.5" y="1609" as="sourcePoint" />
            <mxPoint x="-1788.5" y="1951" as="targetPoint" />
          </mxGeometry>
        </mxCell>
        <mxCell id="zzxlrSQOpVHTD6vEr21p-74" value="route" style="ellipse;whiteSpace=wrap;html=1;align=center;" parent="1" vertex="1">
          <mxGeometry x="-904.5" y="1579" width="100" height="40" as="geometry" />
        </mxCell>
        <mxCell id="zzxlrSQOpVHTD6vEr21p-75" value="" style="endArrow=classic;html=1;rounded=0;" parent="1" source="3XnuhgfGBLwq4sip3Mue-26" target="zzxlrSQOpVHTD6vEr21p-74" edge="1">
          <mxGeometry width="50" height="50" relative="1" as="geometry">
            <mxPoint x="-683.5" y="1609" as="sourcePoint" />
            <mxPoint x="-1798.5" y="1941" as="targetPoint" />
          </mxGeometry>
        </mxCell>
        <mxCell id="lzwff91jxbM4dhVhRFPI-1" value="Has" style="shape=rhombus;perimeter=rhombusPerimeter;whiteSpace=wrap;html=1;align=center;" parent="1" vertex="1">
          <mxGeometry x="-1250" y="-510" width="120" height="60" as="geometry" />
        </mxCell>
        <mxCell id="lzwff91jxbM4dhVhRFPI-2" value="" style="shape=link;html=1;rounded=0;" parent="1" source="VKWNDp3rrL-xCuAL2dxG-1" target="lzwff91jxbM4dhVhRFPI-1" edge="1">
          <mxGeometry relative="1" as="geometry">
            <mxPoint x="-1380" y="-280" as="sourcePoint" />
            <mxPoint x="-1220" y="-280" as="targetPoint" />
          </mxGeometry>
        </mxCell>
        <mxCell id="lzwff91jxbM4dhVhRFPI-3" value="1" style="resizable=0;html=1;whiteSpace=wrap;align=right;verticalAlign=bottom;" parent="lzwff91jxbM4dhVhRFPI-2" connectable="0" vertex="1">
          <mxGeometry x="1" relative="1" as="geometry" />
        </mxCell>
        <mxCell id="lzwff91jxbM4dhVhRFPI-4" value="" style="endArrow=none;html=1;rounded=0;" parent="1" source="XJz8wHWipi7Oz__hJE9w-8" target="lzwff91jxbM4dhVhRFPI-1" edge="1">
          <mxGeometry relative="1" as="geometry">
            <mxPoint x="-960" y="-170" as="sourcePoint" />
            <mxPoint x="-1220" y="-280" as="targetPoint" />
          </mxGeometry>
        </mxCell>
        <mxCell id="lzwff91jxbM4dhVhRFPI-5" value="1" style="resizable=0;html=1;whiteSpace=wrap;align=right;verticalAlign=bottom;" parent="lzwff91jxbM4dhVhRFPI-4" connectable="0" vertex="1">
          <mxGeometry x="1" relative="1" as="geometry">
            <mxPoint x="14" y="-8" as="offset" />
          </mxGeometry>
        </mxCell>
        <mxCell id="lzwff91jxbM4dhVhRFPI-7" value="" style="endArrow=none;html=1;rounded=0;" parent="1" source="XJz8wHWipi7Oz__hJE9w-8" target="lzwff91jxbM4dhVhRFPI-9" edge="1">
          <mxGeometry relative="1" as="geometry">
            <mxPoint x="-515" y="-100" as="sourcePoint" />
            <mxPoint x="-1295" y="344" as="targetPoint" />
          </mxGeometry>
        </mxCell>
        <mxCell id="lzwff91jxbM4dhVhRFPI-8" value="1" style="resizable=0;html=1;whiteSpace=wrap;align=right;verticalAlign=bottom;" parent="lzwff91jxbM4dhVhRFPI-7" connectable="0" vertex="1">
          <mxGeometry x="1" relative="1" as="geometry">
            <mxPoint x="2" y="-1" as="offset" />
          </mxGeometry>
        </mxCell>
        <mxCell id="lzwff91jxbM4dhVhRFPI-9" value="Has" style="shape=rhombus;perimeter=rhombusPerimeter;whiteSpace=wrap;html=1;align=center;" parent="1" vertex="1">
          <mxGeometry x="-1325" y="114" width="120" height="60" as="geometry" />
        </mxCell>
        <mxCell id="lzwff91jxbM4dhVhRFPI-10" value="" style="shape=link;html=1;rounded=0;" parent="1" source="zzxlrSQOpVHTD6vEr21p-1" target="lzwff91jxbM4dhVhRFPI-9" edge="1">
          <mxGeometry relative="1" as="geometry">
            <mxPoint x="-1950" y="107" as="sourcePoint" />
            <mxPoint x="-1295" y="344" as="targetPoint" />
          </mxGeometry>
        </mxCell>
        <mxCell id="lzwff91jxbM4dhVhRFPI-11" value="1" style="resizable=0;html=1;whiteSpace=wrap;align=right;verticalAlign=bottom;" parent="lzwff91jxbM4dhVhRFPI-10" connectable="0" vertex="1">
          <mxGeometry x="1" relative="1" as="geometry">
            <mxPoint x="-12" y="7" as="offset" />
          </mxGeometry>
        </mxCell>
        <mxCell id="lzwff91jxbM4dhVhRFPI-12" value="Has" style="shape=rhombus;perimeter=rhombusPerimeter;whiteSpace=wrap;html=1;align=center;" parent="1" vertex="1">
          <mxGeometry x="-2806" y="144" width="120" height="60" as="geometry" />
        </mxCell>
        <mxCell id="lzwff91jxbM4dhVhRFPI-13" value="" style="endArrow=none;html=1;rounded=0;" parent="1" source="VKWNDp3rrL-xCuAL2dxG-1" target="lzwff91jxbM4dhVhRFPI-12" edge="1">
          <mxGeometry relative="1" as="geometry">
            <mxPoint x="-1218" y="-678" as="sourcePoint" />
            <mxPoint x="-2103" y="386" as="targetPoint" />
          </mxGeometry>
        </mxCell>
        <mxCell id="lzwff91jxbM4dhVhRFPI-14" value="1" style="resizable=0;html=1;whiteSpace=wrap;align=right;verticalAlign=bottom;" parent="lzwff91jxbM4dhVhRFPI-13" connectable="0" vertex="1">
          <mxGeometry x="1" relative="1" as="geometry">
            <mxPoint x="2" y="-1" as="offset" />
          </mxGeometry>
        </mxCell>
        <mxCell id="lzwff91jxbM4dhVhRFPI-28" value="1" style="resizable=0;html=1;whiteSpace=wrap;align=right;verticalAlign=bottom;" parent="lzwff91jxbM4dhVhRFPI-13" connectable="0" vertex="1">
          <mxGeometry x="1" relative="1" as="geometry">
            <mxPoint x="710" y="204" as="offset" />
          </mxGeometry>
        </mxCell>
        <mxCell id="lzwff91jxbM4dhVhRFPI-34" value="1" style="resizable=0;html=1;whiteSpace=wrap;align=right;verticalAlign=bottom;" parent="lzwff91jxbM4dhVhRFPI-13" connectable="0" vertex="1">
          <mxGeometry x="1" relative="1" as="geometry">
            <mxPoint x="669" y="-108" as="offset" />
          </mxGeometry>
        </mxCell>
        <mxCell id="lzwff91jxbM4dhVhRFPI-15" value="" style="shape=link;html=1;rounded=0;" parent="1" source="3XnuhgfGBLwq4sip3Mue-51" target="lzwff91jxbM4dhVhRFPI-12" edge="1">
          <mxGeometry relative="1" as="geometry">
            <mxPoint x="-3202" y="988" as="sourcePoint" />
            <mxPoint x="-2272" y="762" as="targetPoint" />
          </mxGeometry>
        </mxCell>
        <mxCell id="lzwff91jxbM4dhVhRFPI-16" value="M" style="resizable=0;html=1;whiteSpace=wrap;align=right;verticalAlign=bottom;" parent="lzwff91jxbM4dhVhRFPI-15" connectable="0" vertex="1">
          <mxGeometry x="1" relative="1" as="geometry">
            <mxPoint x="-12" y="7" as="offset" />
          </mxGeometry>
        </mxCell>
        <mxCell id="lzwff91jxbM4dhVhRFPI-17" value="" style="endArrow=none;html=1;rounded=0;" parent="1" source="VKWNDp3rrL-xCuAL2dxG-6" target="lzwff91jxbM4dhVhRFPI-19" edge="1">
          <mxGeometry relative="1" as="geometry">
            <mxPoint x="-3243" y="-367" as="sourcePoint" />
            <mxPoint x="-1891" y="688" as="targetPoint" />
          </mxGeometry>
        </mxCell>
        <mxCell id="lzwff91jxbM4dhVhRFPI-18" value="1" style="resizable=0;html=1;whiteSpace=wrap;align=right;verticalAlign=bottom;" parent="lzwff91jxbM4dhVhRFPI-17" connectable="0" vertex="1">
          <mxGeometry x="1" relative="1" as="geometry">
            <mxPoint x="2" y="-1" as="offset" />
          </mxGeometry>
        </mxCell>
        <mxCell id="lzwff91jxbM4dhVhRFPI-19" value="Has" style="shape=rhombus;perimeter=rhombusPerimeter;whiteSpace=wrap;html=1;align=center;" parent="1" vertex="1">
          <mxGeometry x="-4373" y="-645" width="120" height="60" as="geometry" />
        </mxCell>
        <mxCell id="lzwff91jxbM4dhVhRFPI-20" value="" style="shape=link;html=1;rounded=0;" parent="1" source="3XnuhgfGBLwq4sip3Mue-51" target="lzwff91jxbM4dhVhRFPI-19" edge="1">
          <mxGeometry relative="1" as="geometry">
            <mxPoint x="-3300" y="799" as="sourcePoint" />
            <mxPoint x="-2060" y="1064" as="targetPoint" />
          </mxGeometry>
        </mxCell>
        <mxCell id="lzwff91jxbM4dhVhRFPI-21" value="M" style="resizable=0;html=1;whiteSpace=wrap;align=right;verticalAlign=bottom;" parent="lzwff91jxbM4dhVhRFPI-20" connectable="0" vertex="1">
          <mxGeometry x="1" relative="1" as="geometry">
            <mxPoint x="6" y="25" as="offset" />
          </mxGeometry>
        </mxCell>
        <mxCell id="lzwff91jxbM4dhVhRFPI-22" value="" style="endArrow=none;html=1;rounded=0;" parent="1" source="zzxlrSQOpVHTD6vEr21p-1" target="lzwff91jxbM4dhVhRFPI-24" edge="1">
          <mxGeometry relative="1" as="geometry">
            <mxPoint x="-2209" y="340" as="sourcePoint" />
            <mxPoint x="-1970" y="574" as="targetPoint" />
          </mxGeometry>
        </mxCell>
        <mxCell id="lzwff91jxbM4dhVhRFPI-23" value="1" style="resizable=0;html=1;whiteSpace=wrap;align=right;verticalAlign=bottom;" parent="lzwff91jxbM4dhVhRFPI-22" connectable="0" vertex="1">
          <mxGeometry x="1" relative="1" as="geometry">
            <mxPoint x="13" y="23" as="offset" />
          </mxGeometry>
        </mxCell>
        <mxCell id="lzwff91jxbM4dhVhRFPI-24" value="Has" style="shape=rhombus;perimeter=rhombusPerimeter;whiteSpace=wrap;html=1;align=center;" parent="1" vertex="1">
          <mxGeometry x="-2560" y="455" width="120" height="60" as="geometry" />
        </mxCell>
        <mxCell id="lzwff91jxbM4dhVhRFPI-25" value="" style="shape=link;html=1;rounded=0;" parent="1" source="3XnuhgfGBLwq4sip3Mue-51" target="lzwff91jxbM4dhVhRFPI-24" edge="1">
          <mxGeometry relative="1" as="geometry">
            <mxPoint x="-3379" y="685" as="sourcePoint" />
            <mxPoint x="-2139" y="950" as="targetPoint" />
          </mxGeometry>
        </mxCell>
        <mxCell id="lzwff91jxbM4dhVhRFPI-26" value="M" style="resizable=0;html=1;whiteSpace=wrap;align=right;verticalAlign=bottom;" parent="lzwff91jxbM4dhVhRFPI-25" connectable="0" vertex="1">
          <mxGeometry x="1" relative="1" as="geometry">
            <mxPoint x="-12" y="7" as="offset" />
          </mxGeometry>
        </mxCell>
        <mxCell id="lzwff91jxbM4dhVhRFPI-29" value="Has" style="shape=rhombus;perimeter=rhombusPerimeter;whiteSpace=wrap;html=1;align=center;" parent="1" vertex="1">
          <mxGeometry x="-2070" y="268" width="120" height="60" as="geometry" />
        </mxCell>
        <mxCell id="lzwff91jxbM4dhVhRFPI-30" value="" style="endArrow=none;html=1;rounded=0;" parent="1" source="zzxlrSQOpVHTD6vEr21p-30" target="lzwff91jxbM4dhVhRFPI-29" edge="1">
          <mxGeometry relative="1" as="geometry">
            <mxPoint x="-1101" y="862" as="sourcePoint" />
            <mxPoint x="-751" y="864" as="targetPoint" />
          </mxGeometry>
        </mxCell>
        <mxCell id="lzwff91jxbM4dhVhRFPI-32" value="" style="shape=link;html=1;rounded=0;" parent="1" source="zzxlrSQOpVHTD6vEr21p-1" target="lzwff91jxbM4dhVhRFPI-29" edge="1">
          <mxGeometry relative="1" as="geometry">
            <mxPoint x="-3297" y="519" as="sourcePoint" />
            <mxPoint x="-3023" y="730" as="targetPoint" />
          </mxGeometry>
        </mxCell>
        <mxCell id="lzwff91jxbM4dhVhRFPI-33" value="M" style="resizable=0;html=1;whiteSpace=wrap;align=right;verticalAlign=bottom;" parent="lzwff91jxbM4dhVhRFPI-32" connectable="0" vertex="1">
          <mxGeometry x="1" relative="1" as="geometry">
            <mxPoint x="44" y="-75" as="offset" />
          </mxGeometry>
        </mxCell>
        <mxCell id="lzwff91jxbM4dhVhRFPI-35" value="Has" style="shape=rhombus;perimeter=rhombusPerimeter;whiteSpace=wrap;html=1;align=center;" parent="1" vertex="1">
          <mxGeometry x="-1895" y="-312" width="120" height="60" as="geometry" />
        </mxCell>
        <mxCell id="lzwff91jxbM4dhVhRFPI-36" value="" style="endArrow=none;html=1;rounded=0;" parent="1" source="zzxlrSQOpVHTD6vEr21p-30" target="lzwff91jxbM4dhVhRFPI-35" edge="1">
          <mxGeometry relative="1" as="geometry">
            <mxPoint x="-1338" y="-144" as="sourcePoint" />
            <mxPoint x="-988" y="-142" as="targetPoint" />
          </mxGeometry>
        </mxCell>
        <mxCell id="lzwff91jxbM4dhVhRFPI-38" value="" style="shape=link;html=1;rounded=0;" parent="1" source="VKWNDp3rrL-xCuAL2dxG-1" target="lzwff91jxbM4dhVhRFPI-35" edge="1">
          <mxGeometry relative="1" as="geometry">
            <mxPoint x="-4177" y="-840" as="sourcePoint" />
            <mxPoint x="-3260" y="-276" as="targetPoint" />
          </mxGeometry>
        </mxCell>
        <mxCell id="lzwff91jxbM4dhVhRFPI-39" value="M" style="resizable=0;html=1;whiteSpace=wrap;align=right;verticalAlign=bottom;" parent="lzwff91jxbM4dhVhRFPI-38" connectable="0" vertex="1">
          <mxGeometry x="1" relative="1" as="geometry">
            <mxPoint x="10" y="91" as="offset" />
          </mxGeometry>
        </mxCell>
        <mxCell id="lzwff91jxbM4dhVhRFPI-40" value="diagnosis" style="ellipse;whiteSpace=wrap;html=1;align=center;" parent="1" vertex="1">
          <mxGeometry x="-3619" y="-2124.5" width="100" height="40" as="geometry" />
        </mxCell>
        <mxCell id="lzwff91jxbM4dhVhRFPI-41" value="symptom" style="ellipse;whiteSpace=wrap;html=1;align=center;" parent="1" vertex="1">
          <mxGeometry x="-3709" y="-2169.5" width="100" height="40" as="geometry" />
        </mxCell>
        <mxCell id="lzwff91jxbM4dhVhRFPI-42" value="" style="endArrow=classic;html=1;rounded=0;" parent="1" source="3XnuhgfGBLwq4sip3Mue-42" target="lzwff91jxbM4dhVhRFPI-41" edge="1">
          <mxGeometry width="50" height="50" relative="1" as="geometry">
            <mxPoint x="-3852" y="-1984.5" as="sourcePoint" />
            <mxPoint x="-5009" y="-1557.5" as="targetPoint" />
          </mxGeometry>
        </mxCell>
        <mxCell id="lzwff91jxbM4dhVhRFPI-43" value="" style="endArrow=classic;html=1;rounded=0;" parent="1" source="3XnuhgfGBLwq4sip3Mue-42" target="lzwff91jxbM4dhVhRFPI-40" edge="1">
          <mxGeometry width="50" height="50" relative="1" as="geometry">
            <mxPoint x="-3831" y="-1984.5" as="sourcePoint" />
            <mxPoint x="-4999" y="-1547.5" as="targetPoint" />
          </mxGeometry>
        </mxCell>
        <mxCell id="lzwff91jxbM4dhVhRFPI-44" value="" style="endArrow=classic;html=1;rounded=0;" parent="1" source="3XnuhgfGBLwq4sip3Mue-18" target="lzwff91jxbM4dhVhRFPI-45" edge="1">
          <mxGeometry width="50" height="50" relative="1" as="geometry">
            <mxPoint x="-4193" y="-1443" as="sourcePoint" />
            <mxPoint x="-5267" y="-1126" as="targetPoint" />
          </mxGeometry>
        </mxCell>
        <mxCell id="lzwff91jxbM4dhVhRFPI-45" value="number" style="ellipse;whiteSpace=wrap;html=1;align=center;" parent="1" vertex="1">
          <mxGeometry x="-4135" y="-1719" width="100" height="40" as="geometry" />
        </mxCell>
        <mxCell id="lzwff91jxbM4dhVhRFPI-46" value="" style="endArrow=classic;html=1;rounded=0;" parent="1" source="3XnuhgfGBLwq4sip3Mue-18" target="lzwff91jxbM4dhVhRFPI-47" edge="1">
          <mxGeometry width="50" height="50" relative="1" as="geometry">
            <mxPoint x="-4291" y="-1342" as="sourcePoint" />
            <mxPoint x="-5365" y="-1025" as="targetPoint" />
          </mxGeometry>
        </mxCell>
        <mxCell id="lzwff91jxbM4dhVhRFPI-47" value="date" style="ellipse;whiteSpace=wrap;html=1;align=center;" parent="1" vertex="1">
          <mxGeometry x="-4024" y="-1696" width="100" height="40" as="geometry" />
        </mxCell>
        <mxCell id="lzwff91jxbM4dhVhRFPI-48" value="id" style="ellipse;whiteSpace=wrap;html=1;align=center;" parent="1" vertex="1">
          <mxGeometry x="-4562" y="-2238" width="100" height="40" as="geometry" />
        </mxCell>
        <mxCell id="lzwff91jxbM4dhVhRFPI-49" value="" style="endArrow=classic;html=1;rounded=0;" parent="1" source="XJz8wHWipi7Oz__hJE9w-6" target="lzwff91jxbM4dhVhRFPI-48" edge="1">
          <mxGeometry width="50" height="50" relative="1" as="geometry">
            <mxPoint x="-4460" y="-1802" as="sourcePoint" />
            <mxPoint x="-5516" y="-1349" as="targetPoint" />
          </mxGeometry>
        </mxCell>
        <mxCell id="lzwff91jxbM4dhVhRFPI-50" value="Has" style="shape=rhombus;perimeter=rhombusPerimeter;whiteSpace=wrap;html=1;align=center;" parent="1" vertex="1">
          <mxGeometry x="-4083" y="-2028.5" width="120" height="60" as="geometry" />
        </mxCell>
        <mxCell id="lzwff91jxbM4dhVhRFPI-51" value="" style="shape=link;html=1;rounded=0;" parent="1" source="3XnuhgfGBLwq4sip3Mue-18" target="lzwff91jxbM4dhVhRFPI-50" edge="1">
          <mxGeometry relative="1" as="geometry">
            <mxPoint x="-3989" y="-1405" as="sourcePoint" />
            <mxPoint x="-3580" y="-1339" as="targetPoint" />
          </mxGeometry>
        </mxCell>
        <mxCell id="lzwff91jxbM4dhVhRFPI-52" value="1" style="resizable=0;html=1;whiteSpace=wrap;align=right;verticalAlign=bottom;" parent="lzwff91jxbM4dhVhRFPI-51" connectable="0" vertex="1">
          <mxGeometry x="1" relative="1" as="geometry" />
        </mxCell>
        <mxCell id="lzwff91jxbM4dhVhRFPI-53" value="" style="shape=link;html=1;rounded=0;" parent="1" source="3XnuhgfGBLwq4sip3Mue-42" target="lzwff91jxbM4dhVhRFPI-50" edge="1">
          <mxGeometry relative="1" as="geometry">
            <mxPoint x="-4490" y="-1923.5" as="sourcePoint" />
            <mxPoint x="-4032" y="-1837.5" as="targetPoint" />
          </mxGeometry>
        </mxCell>
        <mxCell id="lzwff91jxbM4dhVhRFPI-54" value="M" style="resizable=0;html=1;whiteSpace=wrap;align=right;verticalAlign=bottom;" parent="lzwff91jxbM4dhVhRFPI-53" connectable="0" vertex="1">
          <mxGeometry x="1" relative="1" as="geometry">
            <mxPoint x="29" y="-8" as="offset" />
          </mxGeometry>
        </mxCell>
        <mxCell id="lzwff91jxbM4dhVhRFPI-55" value="Has" style="shape=rhombus;perimeter=rhombusPerimeter;whiteSpace=wrap;html=1;align=center;" parent="1" vertex="1">
          <mxGeometry x="-4226" y="-1411" width="120" height="60" as="geometry" />
        </mxCell>
        <mxCell id="lzwff91jxbM4dhVhRFPI-56" value="" style="shape=link;html=1;rounded=0;" parent="1" source="3XnuhgfGBLwq4sip3Mue-19" target="lzwff91jxbM4dhVhRFPI-55" edge="1">
          <mxGeometry relative="1" as="geometry">
            <mxPoint x="-3568" y="-1335" as="sourcePoint" />
            <mxPoint x="-3865" y="-1202" as="targetPoint" />
          </mxGeometry>
        </mxCell>
        <mxCell id="lzwff91jxbM4dhVhRFPI-57" value="M" style="resizable=0;html=1;whiteSpace=wrap;align=right;verticalAlign=bottom;" parent="lzwff91jxbM4dhVhRFPI-56" connectable="0" vertex="1">
          <mxGeometry x="1" relative="1" as="geometry">
            <mxPoint x="29" y="12" as="offset" />
          </mxGeometry>
        </mxCell>
        <mxCell id="lzwff91jxbM4dhVhRFPI-58" value="" style="shape=link;html=1;rounded=0;" parent="1" source="3XnuhgfGBLwq4sip3Mue-18" target="lzwff91jxbM4dhVhRFPI-55" edge="1">
          <mxGeometry relative="1" as="geometry">
            <mxPoint x="-4358" y="-1457" as="sourcePoint" />
            <mxPoint x="-3782" y="-1246" as="targetPoint" />
          </mxGeometry>
        </mxCell>
        <mxCell id="lzwff91jxbM4dhVhRFPI-59" value="1" style="resizable=0;html=1;whiteSpace=wrap;align=right;verticalAlign=bottom;" parent="lzwff91jxbM4dhVhRFPI-58" connectable="0" vertex="1">
          <mxGeometry x="1" relative="1" as="geometry">
            <mxPoint x="-21" y="3" as="offset" />
          </mxGeometry>
        </mxCell>
        <mxCell id="lzwff91jxbM4dhVhRFPI-60" value="" style="endArrow=none;html=1;rounded=0;" parent="1" source="3XnuhgfGBLwq4sip3Mue-19" target="lzwff91jxbM4dhVhRFPI-65" edge="1">
          <mxGeometry relative="1" as="geometry">
            <mxPoint x="-3270" y="-1162" as="sourcePoint" />
            <mxPoint x="-3407" y="-276" as="targetPoint" />
          </mxGeometry>
        </mxCell>
        <mxCell id="lzwff91jxbM4dhVhRFPI-61" value="1" style="resizable=0;html=1;whiteSpace=wrap;align=right;verticalAlign=bottom;" parent="lzwff91jxbM4dhVhRFPI-60" connectable="0" vertex="1">
          <mxGeometry x="1" relative="1" as="geometry">
            <mxPoint x="20" y="-6" as="offset" />
          </mxGeometry>
        </mxCell>
        <mxCell id="lzwff91jxbM4dhVhRFPI-65" value="Has" style="shape=rhombus;perimeter=rhombusPerimeter;whiteSpace=wrap;html=1;align=center;" parent="1" vertex="1">
          <mxGeometry x="-4034" y="-897" width="120" height="60" as="geometry" />
        </mxCell>
        <mxCell id="lzwff91jxbM4dhVhRFPI-66" value="" style="shape=link;html=1;rounded=0;" parent="1" source="XJz8wHWipi7Oz__hJE9w-5" target="lzwff91jxbM4dhVhRFPI-65" edge="1">
          <mxGeometry relative="1" as="geometry">
            <mxPoint x="-4160" y="-692" as="sourcePoint" />
            <mxPoint x="-3407" y="-276" as="targetPoint" />
          </mxGeometry>
        </mxCell>
        <mxCell id="lzwff91jxbM4dhVhRFPI-67" value="1" style="resizable=0;html=1;whiteSpace=wrap;align=right;verticalAlign=bottom;" parent="lzwff91jxbM4dhVhRFPI-66" connectable="0" vertex="1">
          <mxGeometry x="1" relative="1" as="geometry">
            <mxPoint x="-15" y="21" as="offset" />
          </mxGeometry>
        </mxCell>
        <mxCell id="lzwff91jxbM4dhVhRFPI-68" value="" style="endArrow=none;html=1;rounded=0;" parent="1" source="3XnuhgfGBLwq4sip3Mue-19" target="lzwff91jxbM4dhVhRFPI-70" edge="1">
          <mxGeometry relative="1" as="geometry">
            <mxPoint x="-3865" y="-1265" as="sourcePoint" />
            <mxPoint x="-3215" y="-396" as="targetPoint" />
          </mxGeometry>
        </mxCell>
        <mxCell id="lzwff91jxbM4dhVhRFPI-69" value="1" style="resizable=0;html=1;whiteSpace=wrap;align=right;verticalAlign=bottom;" parent="lzwff91jxbM4dhVhRFPI-68" connectable="0" vertex="1">
          <mxGeometry x="1" relative="1" as="geometry">
            <mxPoint x="20" y="-6" as="offset" />
          </mxGeometry>
        </mxCell>
        <mxCell id="lzwff91jxbM4dhVhRFPI-70" value="Has" style="shape=rhombus;perimeter=rhombusPerimeter;whiteSpace=wrap;html=1;align=center;" parent="1" vertex="1">
          <mxGeometry x="-3813" y="-1086" width="120" height="60" as="geometry" />
        </mxCell>
        <mxCell id="lzwff91jxbM4dhVhRFPI-71" value="" style="shape=link;html=1;rounded=0;" parent="1" source="zzxlrSQOpVHTD6vEr21p-63" target="lzwff91jxbM4dhVhRFPI-70" edge="1">
          <mxGeometry relative="1" as="geometry">
            <mxPoint x="-3649" y="-765" as="sourcePoint" />
            <mxPoint x="-3215" y="-396" as="targetPoint" />
          </mxGeometry>
        </mxCell>
        <mxCell id="lzwff91jxbM4dhVhRFPI-72" value="M" style="resizable=0;html=1;whiteSpace=wrap;align=right;verticalAlign=bottom;" parent="lzwff91jxbM4dhVhRFPI-71" connectable="0" vertex="1">
          <mxGeometry x="1" relative="1" as="geometry">
            <mxPoint x="9" y="26" as="offset" />
          </mxGeometry>
        </mxCell>
        <mxCell id="lzwff91jxbM4dhVhRFPI-73" value="Has" style="shape=rhombus;perimeter=rhombusPerimeter;whiteSpace=wrap;html=1;align=center;" parent="1" vertex="1">
          <mxGeometry x="-4521" y="-1995" width="120" height="60" as="geometry" />
        </mxCell>
        <mxCell id="lzwff91jxbM4dhVhRFPI-74" value="" style="shape=link;html=1;rounded=0;" parent="1" source="3XnuhgfGBLwq4sip3Mue-18" target="lzwff91jxbM4dhVhRFPI-73" edge="1">
          <mxGeometry relative="1" as="geometry">
            <mxPoint x="-4482" y="-1325" as="sourcePoint" />
            <mxPoint x="-4274" y="-1342" as="targetPoint" />
          </mxGeometry>
        </mxCell>
        <mxCell id="lzwff91jxbM4dhVhRFPI-75" value="M" style="resizable=0;html=1;whiteSpace=wrap;align=right;verticalAlign=bottom;" parent="lzwff91jxbM4dhVhRFPI-74" connectable="0" vertex="1">
          <mxGeometry x="1" relative="1" as="geometry">
            <mxPoint x="50" y="1" as="offset" />
          </mxGeometry>
        </mxCell>
        <mxCell id="lzwff91jxbM4dhVhRFPI-76" value="" style="shape=link;html=1;rounded=0;" parent="1" source="XJz8wHWipi7Oz__hJE9w-6" target="lzwff91jxbM4dhVhRFPI-73" edge="1">
          <mxGeometry relative="1" as="geometry">
            <mxPoint x="-4595" y="-1982" as="sourcePoint" />
            <mxPoint x="-4175" y="-1689" as="targetPoint" />
          </mxGeometry>
        </mxCell>
        <mxCell id="lzwff91jxbM4dhVhRFPI-77" value="1" style="resizable=0;html=1;whiteSpace=wrap;align=right;verticalAlign=bottom;" parent="lzwff91jxbM4dhVhRFPI-76" connectable="0" vertex="1">
          <mxGeometry x="1" relative="1" as="geometry">
            <mxPoint x="-21" y="3" as="offset" />
          </mxGeometry>
        </mxCell>
        <mxCell id="GeLh2NohOF9QaHFt4QQr-1" value="Has" style="shape=rhombus;perimeter=rhombusPerimeter;whiteSpace=wrap;html=1;align=center;" vertex="1" parent="1">
          <mxGeometry x="-3229" y="-1114" width="120" height="60" as="geometry" />
        </mxCell>
        <mxCell id="GeLh2NohOF9QaHFt4QQr-2" value="" style="shape=link;html=1;rounded=0;" edge="1" target="GeLh2NohOF9QaHFt4QQr-1" parent="1" source="3XnuhgfGBLwq4sip3Mue-18">
          <mxGeometry relative="1" as="geometry">
            <mxPoint x="-4004" y="-1523" as="sourcePoint" />
            <mxPoint x="-3411" y="-1260" as="targetPoint" />
          </mxGeometry>
        </mxCell>
        <mxCell id="GeLh2NohOF9QaHFt4QQr-3" value="M" style="resizable=0;html=1;whiteSpace=wrap;align=right;verticalAlign=bottom;" connectable="0" vertex="1" parent="GeLh2NohOF9QaHFt4QQr-2">
          <mxGeometry x="1" relative="1" as="geometry">
            <mxPoint x="-1" y="-10" as="offset" />
          </mxGeometry>
        </mxCell>
        <mxCell id="GeLh2NohOF9QaHFt4QQr-4" value="" style="shape=link;html=1;rounded=0;" edge="1" target="GeLh2NohOF9QaHFt4QQr-1" parent="1" source="VKWNDp3rrL-xCuAL2dxG-1">
          <mxGeometry relative="1" as="geometry">
            <mxPoint x="-2115" y="-528" as="sourcePoint" />
            <mxPoint x="-3328" y="-1304" as="targetPoint" />
          </mxGeometry>
        </mxCell>
        <mxCell id="GeLh2NohOF9QaHFt4QQr-5" value="1" style="resizable=0;html=1;whiteSpace=wrap;align=right;verticalAlign=bottom;" connectable="0" vertex="1" parent="GeLh2NohOF9QaHFt4QQr-4">
          <mxGeometry x="1" relative="1" as="geometry">
            <mxPoint x="46" y="5" as="offset" />
          </mxGeometry>
        </mxCell>
        <mxCell id="GeLh2NohOF9QaHFt4QQr-6" value="Has" style="shape=rhombus;perimeter=rhombusPerimeter;whiteSpace=wrap;html=1;align=center;" vertex="1" parent="1">
          <mxGeometry x="-4892" y="-1400" width="120" height="60" as="geometry" />
        </mxCell>
        <mxCell id="GeLh2NohOF9QaHFt4QQr-7" value="" style="shape=link;html=1;rounded=0;" edge="1" target="GeLh2NohOF9QaHFt4QQr-6" parent="1" source="3XnuhgfGBLwq4sip3Mue-18">
          <mxGeometry relative="1" as="geometry">
            <mxPoint x="-3713" y="-1210" as="sourcePoint" />
            <mxPoint x="-3505" y="-1227" as="targetPoint" />
          </mxGeometry>
        </mxCell>
        <mxCell id="GeLh2NohOF9QaHFt4QQr-8" value="M" style="resizable=0;html=1;whiteSpace=wrap;align=right;verticalAlign=bottom;" connectable="0" vertex="1" parent="GeLh2NohOF9QaHFt4QQr-7">
          <mxGeometry x="1" relative="1" as="geometry">
            <mxPoint x="13" y="-7" as="offset" />
          </mxGeometry>
        </mxCell>
        <mxCell id="GeLh2NohOF9QaHFt4QQr-9" value="" style="shape=link;html=1;rounded=0;" edge="1" target="GeLh2NohOF9QaHFt4QQr-6" parent="1" source="VKWNDp3rrL-xCuAL2dxG-6">
          <mxGeometry relative="1" as="geometry">
            <mxPoint x="-3842" y="-1564" as="sourcePoint" />
            <mxPoint x="-3422" y="-1271" as="targetPoint" />
          </mxGeometry>
        </mxCell>
        <mxCell id="GeLh2NohOF9QaHFt4QQr-10" value="1" style="resizable=0;html=1;whiteSpace=wrap;align=right;verticalAlign=bottom;" connectable="0" vertex="1" parent="GeLh2NohOF9QaHFt4QQr-9">
          <mxGeometry x="1" relative="1" as="geometry">
            <mxPoint x="-5" y="-12" as="offset" />
          </mxGeometry>
        </mxCell>
        <mxCell id="GeLh2NohOF9QaHFt4QQr-11" value="Has" style="shape=rhombus;perimeter=rhombusPerimeter;whiteSpace=wrap;html=1;align=center;" vertex="1" parent="1">
          <mxGeometry x="-5666" y="-384" width="120" height="60" as="geometry" />
        </mxCell>
        <mxCell id="GeLh2NohOF9QaHFt4QQr-12" value="" style="shape=link;html=1;rounded=0;exitX=0.5;exitY=1;exitDx=0;exitDy=0;" edge="1" target="GeLh2NohOF9QaHFt4QQr-11" parent="1" source="VKWNDp3rrL-xCuAL2dxG-6">
          <mxGeometry relative="1" as="geometry">
            <mxPoint x="-4954" y="-517" as="sourcePoint" />
            <mxPoint x="-4203" y="-200" as="targetPoint" />
          </mxGeometry>
        </mxCell>
        <mxCell id="GeLh2NohOF9QaHFt4QQr-13" value="M" style="resizable=0;html=1;whiteSpace=wrap;align=right;verticalAlign=bottom;" connectable="0" vertex="1" parent="GeLh2NohOF9QaHFt4QQr-12">
          <mxGeometry x="1" relative="1" as="geometry">
            <mxPoint x="-14" y="-2" as="offset" />
          </mxGeometry>
        </mxCell>
        <mxCell id="GeLh2NohOF9QaHFt4QQr-14" value="" style="shape=link;html=1;rounded=0;" edge="1" target="GeLh2NohOF9QaHFt4QQr-11" parent="1" source="zzxlrSQOpVHTD6vEr21p-48">
          <mxGeometry relative="1" as="geometry">
            <mxPoint x="-5546" y="728" as="sourcePoint" />
            <mxPoint x="-4120" y="-244" as="targetPoint" />
          </mxGeometry>
        </mxCell>
        <mxCell id="GeLh2NohOF9QaHFt4QQr-15" value="1" style="resizable=0;html=1;whiteSpace=wrap;align=right;verticalAlign=bottom;" connectable="0" vertex="1" parent="GeLh2NohOF9QaHFt4QQr-14">
          <mxGeometry x="1" relative="1" as="geometry">
            <mxPoint x="-11" y="31" as="offset" />
          </mxGeometry>
        </mxCell>
        <mxCell id="GeLh2NohOF9QaHFt4QQr-16" value="Has" style="shape=rhombus;perimeter=rhombusPerimeter;whiteSpace=wrap;html=1;align=center;" vertex="1" parent="1">
          <mxGeometry x="-4628" y="503" width="120" height="60" as="geometry" />
        </mxCell>
        <mxCell id="GeLh2NohOF9QaHFt4QQr-17" value="" style="shape=link;html=1;rounded=0;" edge="1" target="GeLh2NohOF9QaHFt4QQr-16" parent="1" source="VKWNDp3rrL-xCuAL2dxG-1">
          <mxGeometry relative="1" as="geometry">
            <mxPoint x="-3590" y="-208" as="sourcePoint" />
            <mxPoint x="-3415" y="510" as="targetPoint" />
          </mxGeometry>
        </mxCell>
        <mxCell id="GeLh2NohOF9QaHFt4QQr-18" value="M" style="resizable=0;html=1;whiteSpace=wrap;align=right;verticalAlign=bottom;" connectable="0" vertex="1" parent="GeLh2NohOF9QaHFt4QQr-17">
          <mxGeometry x="1" relative="1" as="geometry">
            <mxPoint x="13" y="-7" as="offset" />
          </mxGeometry>
        </mxCell>
        <mxCell id="GeLh2NohOF9QaHFt4QQr-19" value="" style="shape=link;html=1;rounded=0;" edge="1" target="GeLh2NohOF9QaHFt4QQr-16" parent="1" source="zzxlrSQOpVHTD6vEr21p-48">
          <mxGeometry relative="1" as="geometry">
            <mxPoint x="-5554" y="920" as="sourcePoint" />
            <mxPoint x="-3332" y="466" as="targetPoint" />
          </mxGeometry>
        </mxCell>
        <mxCell id="GeLh2NohOF9QaHFt4QQr-20" value="1" style="resizable=0;html=1;whiteSpace=wrap;align=right;verticalAlign=bottom;" connectable="0" vertex="1" parent="GeLh2NohOF9QaHFt4QQr-19">
          <mxGeometry x="1" relative="1" as="geometry">
            <mxPoint x="-40" y="6" as="offset" />
          </mxGeometry>
        </mxCell>
        <mxCell id="GeLh2NohOF9QaHFt4QQr-22" value="Has" style="shape=rhombus;perimeter=rhombusPerimeter;whiteSpace=wrap;html=1;align=center;" vertex="1" parent="1">
          <mxGeometry x="-4408" y="787" width="120" height="60" as="geometry" />
        </mxCell>
        <mxCell id="GeLh2NohOF9QaHFt4QQr-23" value="" style="shape=link;html=1;rounded=0;" edge="1" target="GeLh2NohOF9QaHFt4QQr-22" parent="1" source="zzxlrSQOpVHTD6vEr21p-1">
          <mxGeometry relative="1" as="geometry">
            <mxPoint x="-3772" y="643" as="sourcePoint" />
            <mxPoint x="-3021" y="960" as="targetPoint" />
          </mxGeometry>
        </mxCell>
        <mxCell id="GeLh2NohOF9QaHFt4QQr-24" value="M" style="resizable=0;html=1;whiteSpace=wrap;align=right;verticalAlign=bottom;" connectable="0" vertex="1" parent="GeLh2NohOF9QaHFt4QQr-23">
          <mxGeometry x="1" relative="1" as="geometry">
            <mxPoint x="13" y="-7" as="offset" />
          </mxGeometry>
        </mxCell>
        <mxCell id="GeLh2NohOF9QaHFt4QQr-25" value="" style="shape=link;html=1;rounded=0;" edge="1" target="GeLh2NohOF9QaHFt4QQr-22" parent="1" source="zzxlrSQOpVHTD6vEr21p-48">
          <mxGeometry relative="1" as="geometry">
            <mxPoint x="-5104" y="629" as="sourcePoint" />
            <mxPoint x="-2938" y="916" as="targetPoint" />
          </mxGeometry>
        </mxCell>
        <mxCell id="GeLh2NohOF9QaHFt4QQr-26" value="1" style="resizable=0;html=1;whiteSpace=wrap;align=right;verticalAlign=bottom;" connectable="0" vertex="1" parent="GeLh2NohOF9QaHFt4QQr-25">
          <mxGeometry x="1" relative="1" as="geometry">
            <mxPoint x="-5" y="-12" as="offset" />
          </mxGeometry>
        </mxCell>
      </root>
    </mxGraphModel>
  </diagram>
</mxfile>
